<svg width="60" height="60" viewBox="0 0 60 60" fill="none" xmlns="http://www.w3.org/2000/svg">
<rect width="60" height="60" rx="10" fill="#FFEDF9"/>
<path d="M32.6667 17.0259V22.5333C32.6667 23.28 32.6667 23.6534 32.812 23.9386C32.9399 24.1895 33.1438 24.3934 33.3947 24.5213C33.6799 24.6666 34.0533 24.6666 34.8 24.6666H40.3074M32.6667 36.6665H24.6667M35.3334 31.3332H24.6667M40.6667 27.3175V36.9332C40.6667 39.1734 40.6667 40.2935 40.2307 41.1491C39.8472 41.9018 39.2353 42.5137 38.4827 42.8972C37.627 43.3332 36.5069 43.3332 34.2667 43.3332H25.7334C23.4932 43.3332 22.3731 43.3332 21.5174 42.8972C20.7648 42.5137 20.1528 41.9018 19.7693 41.1491C19.3334 40.2935 19.3334 39.1734 19.3334 36.9332V23.0665C19.3334 20.8263 19.3334 19.7062 19.7693 18.8505C20.1528 18.0979 20.7648 17.486 21.5174 17.1025C22.3731 16.6665 23.4932 16.6665 25.7334 16.6665H30.0157C30.9941 16.6665 31.4833 16.6665 31.9436 16.777C32.3518 16.875 32.742 17.0366 33.0998 17.2559C33.5035 17.5033 33.8494 17.8492 34.5412 18.541L38.7922 22.792C39.484 23.4838 39.8299 23.8297 40.0773 24.2334C40.2966 24.5913 40.4582 24.9814 40.5562 25.3896C40.6667 25.8499 40.6667 26.3391 40.6667 27.3175Z" stroke="#FF96DB" stroke-width="2" stroke-linecap="round" stroke-linejoin="round"/>
</svg>
