<svg width="60" height="60" viewBox="0 0 60 60" fill="none" xmlns="http://www.w3.org/2000/svg">
<rect width="60" height="60" rx="10" fill="#ECEBFF"/>
<path d="M16.6667 29.9998H43.3334M16.6667 29.9998C16.6667 37.3636 22.6362 43.3332 30 43.3332M16.6667 29.9998C16.6667 22.636 22.6362 16.6665 30 16.6665M43.3334 29.9998C43.3334 37.3636 37.3638 43.3332 30 43.3332M43.3334 29.9998C43.3334 22.636 37.3638 16.6665 30 16.6665M30 16.6665C33.3351 20.3176 35.2304 25.0559 35.3334 29.9998C35.2304 34.9438 33.3351 39.682 30 43.3332M30 16.6665C26.665 20.3176 24.7697 25.0559 24.6667 29.9998C24.7697 34.9438 26.665 39.682 30 43.3332" stroke="#726FF6" stroke-width="2" stroke-linecap="round" stroke-linejoin="round"/>
</svg>
