<svg xmlns="http://www.w3.org/2000/svg" width="17" height="16" viewBox="0 0 17 16" fill="none">
  <path d="M12.4997 1.33301L15.1663 3.99967M1.83301 14.6663L2.68394 11.5462C2.73946 11.3427 2.76722 11.2409 2.80983 11.146C2.84766 11.0617 2.89416 10.9816 2.94855 10.907C3.00982 10.8229 3.08441 10.7483 3.23361 10.5991L10.1226 3.71013C10.2546 3.57813 10.3206 3.51212 10.3967 3.48739C10.4636 3.46564 10.5357 3.46564 10.6027 3.48739C10.6788 3.51212 10.7448 3.57813 10.8768 3.71013L12.7892 5.62255C12.9212 5.75456 12.9872 5.82056 13.012 5.89667C13.0337 5.96362 13.0337 6.03573 13.012 6.10268C12.9872 6.17879 12.9212 6.24479 12.7892 6.3768L5.90028 13.2657C5.75108 13.4149 5.67648 13.4895 5.5924 13.5508C5.51774 13.6052 5.43762 13.6517 5.35335 13.6895C5.25844 13.7321 5.15666 13.7599 4.9531 13.8154L1.83301 14.6663Z" stroke="#3893FF" stroke-width="1.5" stroke-linecap="round" stroke-linejoin="round"/>
</svg>