<svg xmlns="http://www.w3.org/2000/svg" width="238" height="117" viewBox="0 0 238 117" fill="none">
  <rect width="238" height="117" fill="white"/>
  <path fill-rule="evenodd" clip-rule="evenodd" d="M202.333 21C206.522 21 209.917 24.3952 209.917 28.5833C209.917 32.7715 206.522 36.1667 202.333 36.1667H159C163.188 36.1667 166.583 39.5618 166.583 43.75C166.583 47.9382 163.188 51.3333 159 51.3333H182.833C187.022 51.3333 190.417 54.7285 190.417 58.9167C190.417 63.1048 187.022 66.5 182.833 66.5H171.812C166.531 66.5 162.25 69.8952 162.25 74.0833C162.25 76.0394 163.313 77.8657 165.44 79.5623C167.457 81.171 170.264 81.3807 172.504 82.6597C174.792 83.9655 176.333 86.4277 176.333 89.25C176.333 93.4382 172.938 96.8333 168.75 96.8333H78.8333C74.6452 96.8333 71.25 93.4382 71.25 89.25C71.25 85.0619 74.6452 81.6667 78.8333 81.6667H36.5833C32.3952 81.6667 29 78.2715 29 74.0833C29 69.8952 32.3952 66.5 36.5833 66.5H79.9167C84.1048 66.5 87.5 63.1048 87.5 58.9167C87.5 54.7285 84.1048 51.3333 79.9167 51.3333H52.8333C48.6452 51.3333 45.25 47.9382 45.25 43.75C45.25 39.5618 48.6452 36.1667 52.8333 36.1667H96.1667C91.9785 36.1667 88.5833 32.7715 88.5833 28.5833C88.5833 24.3952 91.9785 21 96.1667 21H202.333ZM202.333 51.3333C206.522 51.3333 209.917 54.7285 209.917 58.9167C209.917 63.1048 206.522 66.5 202.333 66.5C198.145 66.5 194.75 63.1048 194.75 58.9167C194.75 54.7285 198.145 51.3333 202.333 51.3333Z" fill="#D2E7FF"/>
  <path d="M118.5 41C140.868 41 159 34.9558 159 27.5C159 20.0442 140.868 14 118.5 14C96.1325 14 78 20.0442 78 27.5C78 34.9558 96.1325 41 118.5 41Z" fill="#A0CCFF"/>
  <path d="M159 59C159 66.47 141 72.5 118.5 72.5C96 72.5 78 66.47 78 59" fill="#A0CCFF"/>
  <path d="M78 27.5V90.5C78 97.97 96 104 118.5 104C141 104 159 97.97 159 90.5V27.5" fill="#A0CCFF"/>
  <path d="M159 27.5C159 34.9558 140.868 41 118.5 41C96.1325 41 78 34.9558 78 27.5M159 27.5C159 20.0442 140.868 14 118.5 14C96.1325 14 78 20.0442 78 27.5M159 27.5V90.5C159 97.97 141 104 118.5 104C96 104 78 97.97 78 90.5V27.5M159 59C159 66.47 141 72.5 118.5 72.5C96 72.5 78 66.47 78 59" stroke="#3893FF" stroke-width="6" stroke-linecap="round" stroke-linejoin="round"/>
</svg>