<svg xmlns="http://www.w3.org/2000/svg" width="18" height="19" viewBox="0 0 18 19" fill="none">
  <path d="M2.07547 15.5242L1.41108 15.1763L1.41108 15.1763L2.07547 15.5242ZM16.5912 15.5242L17.2556 15.1763L16.5912 15.5242ZM9.96504 2.87271L9.30064 3.22069L9.96504 2.87271ZM8.70163 2.87271L9.36602 3.22069L8.70163 2.87271ZM8.58333 13.8333C8.58333 14.2475 8.91912 14.5833 9.33333 14.5833C9.74755 14.5833 10.0833 14.2475 10.0833 13.8333H8.58333ZM10.0833 11.1667C10.0833 10.7525 9.74755 10.4167 9.33333 10.4167C8.91912 10.4167 8.58333 10.7525 8.58333 11.1667H10.0833ZM9.33333 7.75C8.91912 7.75 8.58333 8.08579 8.58333 8.5C8.58333 8.91421 8.91912 9.25 9.33333 9.25V7.75ZM9.34 9.25C9.75421 9.25 10.09 8.91421 10.09 8.5C10.09 8.08579 9.75421 7.75 9.34 7.75V9.25ZM9.30064 3.22069L15.9268 15.8722L17.2556 15.1763L10.6294 2.52474L9.30064 3.22069ZM15.9595 15.75H2.70718V17.25H15.9595V15.75ZM2.73987 15.8722L9.36602 3.22069L8.03724 2.52474L1.41108 15.1763L2.73987 15.8722ZM2.70718 15.75C2.70362 15.75 2.70853 15.7496 2.71667 15.7541C2.72339 15.7578 2.73019 15.7637 2.73598 15.7726C2.74179 15.7816 2.7484 15.7967 2.74976 15.8179C2.75126 15.8414 2.74548 15.8615 2.73987 15.8722L1.41108 15.1763C0.88778 16.1754 1.67762 17.25 2.70718 17.25V15.75ZM15.9268 15.8722C15.9212 15.8615 15.9154 15.8414 15.9169 15.8179C15.9183 15.7967 15.9249 15.7816 15.9307 15.7726C15.9365 15.7637 15.9433 15.7578 15.95 15.7541C15.9581 15.7496 15.963 15.75 15.9595 15.75V17.25C16.989 17.25 17.7789 16.1754 17.2556 15.1763L15.9268 15.8722ZM10.6294 2.52474C10.0884 1.49175 8.57826 1.49175 8.03724 2.52474L9.36602 3.22069C9.36425 3.22407 9.36071 3.22942 9.35521 3.23502C9.34989 3.24045 9.34455 3.24426 9.34025 3.24668C9.33253 3.25103 9.33017 3.25 9.33333 3.25C9.3365 3.25 9.33414 3.25103 9.32642 3.24668C9.32212 3.24426 9.31678 3.24045 9.31145 3.23502C9.30595 3.22942 9.30242 3.22407 9.30064 3.22069L10.6294 2.52474ZM10.0833 13.8333V11.1667H8.58333V13.8333H10.0833ZM9.33333 9.25H9.34V7.75H9.33333V9.25Z" fill="#EE9D3E"/>
</svg>