<svg width="238" height="117" viewBox="0 0 238 117" fill="none" xmlns="http://www.w3.org/2000/svg">
<g id="Group 1000006992">
<g id="Group 1000006326">
<rect id="Rectangle 5741" width="238" height="117" fill="white"/>
<g id="Group 1000006325">
<path id="Background" fill-rule="evenodd" clip-rule="evenodd" d="M202.333 21C206.522 21 209.917 24.3952 209.917 28.5833C209.917 32.7715 206.522 36.1667 202.333 36.1667H159C163.188 36.1667 166.583 39.5618 166.583 43.75C166.583 47.9382 163.188 51.3333 159 51.3333H182.833C187.022 51.3333 190.417 54.7285 190.417 58.9167C190.417 63.1048 187.022 66.5 182.833 66.5H171.812C166.531 66.5 162.25 69.8952 162.25 74.0833C162.25 76.0394 163.313 77.8657 165.44 79.5623C167.457 81.171 170.264 81.3807 172.504 82.6597C174.792 83.9655 176.333 86.4277 176.333 89.25C176.333 93.4382 172.938 96.8333 168.75 96.8333H78.8333C74.6452 96.8333 71.25 93.4382 71.25 89.25C71.25 85.0619 74.6452 81.6667 78.8333 81.6667H36.5833C32.3952 81.6667 29 78.2715 29 74.0833C29 69.8952 32.3952 66.5 36.5833 66.5H79.9167C84.1048 66.5 87.5 63.1048 87.5 58.9167C87.5 54.7285 84.1048 51.3333 79.9167 51.3333H52.8333C48.6452 51.3333 45.25 47.9382 45.25 43.75C45.25 39.5618 48.6452 36.1667 52.8333 36.1667H96.1667C91.9785 36.1667 88.5833 32.7715 88.5833 28.5833C88.5833 24.3952 91.9785 21 96.1667 21H202.333ZM202.333 51.3333C206.522 51.3333 209.917 54.7285 209.917 58.9167C209.917 63.1048 206.522 66.5 202.333 66.5C198.145 66.5 194.75 63.1048 194.75 58.9167C194.75 54.7285 198.145 51.3333 202.333 51.3333Z" fill="#D2E7FF"/>
</g>
</g>
<g id="Group 1000006991">
<g id="Icon">
<path d="M115.115 11.4386C116.533 10.6508 117.242 10.2569 117.993 10.1025C118.657 9.96583 119.343 9.96583 120.007 10.1025C120.758 10.2569 121.467 10.6508 122.885 11.4386L159.885 31.9942C161.383 32.8262 162.132 33.2422 162.677 33.8339C163.159 34.3573 163.524 34.9777 163.748 35.6536C164 36.4176 164 37.2742 164 38.9874V79.573C164 81.2862 164 82.1428 163.748 82.9068C163.524 83.5827 163.159 84.2031 162.677 84.7265C162.132 85.3182 161.383 85.7342 159.885 86.5662L122.885 107.122C121.467 107.91 120.758 108.303 120.007 108.458C119.343 108.595 118.657 108.595 117.993 108.458C117.242 108.303 116.533 107.91 115.115 107.122L78.1149 86.5662C76.6172 85.7342 75.8684 85.3182 75.3232 84.7265C74.8408 84.2031 74.4757 83.5827 74.2524 82.9068C74 82.1428 74 81.2862 74 79.573V38.9874C74 37.2742 74 36.4176 74.2524 35.6536C74.4757 34.9777 74.8408 34.3573 75.3232 33.8339C75.8684 33.2422 76.6172 32.8262 78.1149 31.9942L115.115 11.4386Z" fill="#A0CCFF"/>
<path d="M161.5 35.6689L119 59.2801M119 59.2801L76.4998 35.6689M119 59.2801L119 106.78M164 79.573V38.9874C164 37.2742 164 36.4176 163.748 35.6536C163.524 34.9777 163.159 34.3573 162.677 33.8339C162.132 33.2422 161.383 32.8262 159.885 31.9942L122.885 11.4386C121.467 10.6508 120.758 10.2569 120.007 10.1025C119.343 9.96583 118.657 9.96583 117.993 10.1025C117.242 10.2569 116.533 10.6508 115.115 11.4386L78.1149 31.9942C76.6172 32.8262 75.8684 33.2422 75.3232 33.8339C74.8408 34.3573 74.4757 34.9777 74.2524 35.6536C74 36.4176 74 37.2742 74 38.9874V79.573C74 81.2862 74 82.1428 74.2524 82.9068C74.4757 83.5827 74.8408 84.2031 75.3232 84.7265C75.8684 85.3182 76.6172 85.7342 78.1149 86.5662L115.115 107.122C116.533 107.91 117.242 108.303 117.993 108.458C118.657 108.595 119.343 108.595 120.007 108.458C120.758 108.303 121.467 107.91 122.885 107.122L159.885 86.5662C161.383 85.7342 162.132 85.3182 162.677 84.7265C163.159 84.2031 163.524 83.5827 163.748 82.9068C164 82.1428 164 81.2862 164 79.573Z" stroke="#6DB1FF" stroke-width="6" stroke-linecap="round" stroke-linejoin="round"/>
</g>
<path id="Icon_2" d="M141 46.7773L96 21.7773" stroke="#6DB1FF" stroke-width="6" stroke-linecap="round" stroke-linejoin="round"/>
</g>
<g id="Group 1000006328">
<circle id="Ellipse 105" cx="148.2" cy="16.2" r="15.2" fill="#FFD465"/>
<g id="Group 1000006327">
<circle id="Ellipse 106" cx="147.96" cy="24.0394" r="1.79528" fill="white"/>
<path id="Rectangle 5745" d="M146.165 6.98438H149.756L149.307 21.3466H146.614L146.165 6.98438Z" fill="white"/>
</g>
</g>
</g>
</svg>
