<svg xmlns="http://www.w3.org/2000/svg" width="30" height="30" viewBox="0 0 30 30" fill="none">
<rect width="30" height="30" rx="4" fill="white"/>
<path d="M14.3955 3.06641L15.0457 4.28753C15.1918 4.51288 15.3502 4.71234 15.5367 4.8981C16.0835 5.43811 16.5932 6.01446 17.0623 6.62321C18.164 8.06968 18.907 9.67603 19.4376 11.4133C19.7558 12.4746 19.9286 13.5632 19.9416 14.6641C19.9949 17.9552 18.8666 20.7811 16.5919 23.1297C16.2218 23.5022 15.8221 23.8439 15.3966 24.1514C15.1713 24.1514 15.0647 23.9786 14.9718 23.8195C14.8027 23.5244 14.6901 23.2004 14.6399 22.8641C14.56 22.4659 14.5074 22.0677 14.5333 21.6566V21.4709C14.515 21.4313 14.3163 3.16005 14.3955 3.06641Z" fill="#599636"/>
<path d="M14.3954 3.02619C14.3688 2.9729 14.3421 3.01325 14.3155 3.03913C14.3284 3.30559 14.2355 3.54311 14.0901 3.76998C13.9302 3.99533 13.7186 4.16814 13.5062 4.3539C12.3262 5.37557 11.3974 6.60964 10.6536 7.98988C9.66391 9.84745 9.15384 11.8383 9.00919 13.9341C8.94296 14.6901 9.24824 17.3577 9.48653 18.1274C10.1367 20.1707 11.3045 21.8829 12.8172 23.3689C13.1887 23.7267 13.5861 24.0587 13.9972 24.3777C14.1168 24.3777 14.1297 24.2711 14.1571 24.1919C14.2095 24.0225 14.2495 23.8495 14.2766 23.6742L14.5431 21.6842L14.3954 3.02619Z" fill="#6CAC48"/>
<path d="M15.0464 24.9597C15.073 24.6552 15.2192 24.4024 15.3783 24.1504C15.2184 24.0842 15.0997 23.9525 15.0068 23.8055C14.9267 23.6664 14.8604 23.5198 14.8088 23.3678C14.6231 22.8105 14.5835 22.2258 14.5302 21.6564V21.3115C14.464 21.3648 14.4503 21.8155 14.4503 21.8825C14.4115 22.4844 14.3317 23.0829 14.2112 23.6738C14.1716 23.9129 14.145 24.1512 13.998 24.3636C13.998 24.3902 13.998 24.4169 14.011 24.4565C14.25 25.1599 14.3155 25.8763 14.3559 26.6064V26.8728C14.3559 27.1911 14.3429 27.1241 14.6071 27.2306C14.7137 27.2702 14.8324 27.2839 14.939 27.3631C15.019 27.3631 15.0319 27.2969 15.0319 27.2436L14.9923 26.8058V25.5847C14.9794 25.3715 15.019 25.1599 15.0456 24.9604L15.0464 24.9597Z" fill="#C2BFBF"/>
</svg>