<svg width="351" height="143" viewBox="0 0 351 143" fill="none" xmlns="http://www.w3.org/2000/svg">
<path d="M47.7747 141.581C38.7929 141.581 30.7541 139.899 23.6584 136.535C16.5628 133.125 10.9267 128.46 6.7501 122.538C2.61845 116.616 0.417894 109.842 0.148438 102.216H24.3994C24.8485 107.868 27.2961 112.489 31.7421 116.078C36.1881 119.622 41.5323 121.394 47.7747 121.394C52.6698 121.394 57.026 120.272 60.8433 118.029C64.6606 115.786 67.6695 112.668 69.87 108.676C72.0706 104.683 73.1484 100.13 73.1035 95.0156C73.1484 89.8118 72.0481 85.1911 69.8027 81.1536C67.5572 77.1161 64.4809 73.9534 60.5738 71.6655C56.6667 69.3327 52.1758 68.1663 47.1011 68.1663C42.9694 68.1215 38.9051 68.8841 34.9082 70.4542C30.9113 72.0244 27.7452 74.088 25.4099 76.645L2.84299 72.944L10.0509 1.88416H90.0792V22.7445H30.7316L26.7572 59.2838H27.5655C30.1254 56.2781 33.7406 53.7884 38.4111 51.8145C43.0817 49.7957 48.2013 48.7864 53.7701 48.7864C62.1232 48.7864 69.5781 50.7602 76.1349 54.708C82.6916 58.6109 87.8562 63.9942 91.6286 70.858C95.401 77.7217 97.2871 85.5724 97.2871 94.41C97.2871 103.517 95.1764 111.637 90.9549 118.77C86.7784 125.858 80.9626 131.443 73.5077 135.525C66.0977 139.563 57.52 141.581 47.7747 141.581Z" fill="#E6F2FF"/>
<path d="M170.848 142.322C159.756 142.322 150.235 139.518 142.286 133.91C134.382 128.258 128.297 120.115 124.031 109.483C119.809 98.8064 117.698 85.9537 117.698 70.9253C117.743 55.8968 119.877 43.1114 124.098 32.5691C128.364 21.9819 134.45 13.9069 142.354 8.34415C150.303 2.78138 159.801 0 170.848 0C181.896 0 191.394 2.78138 199.343 8.34415C207.292 13.9069 213.378 21.9819 217.599 32.5691C221.865 43.1563 223.999 55.9417 223.999 70.9253C223.999 85.9986 221.865 98.8737 217.599 109.551C213.378 120.183 207.292 128.303 199.343 133.91C191.439 139.518 181.941 142.322 170.848 142.322ZM170.848 121.259C179.471 121.259 186.275 117.02 191.26 108.541C196.29 100.018 198.805 87.479 198.805 70.9253C198.805 59.9792 197.659 50.7827 195.369 43.3357C193.079 35.8888 189.845 30.2812 185.669 26.5129C181.492 22.6997 176.552 20.7931 170.848 20.7931C162.271 20.7931 155.49 25.0549 150.505 33.5785C145.52 42.0572 143.005 54.5061 142.96 70.9253C142.915 81.9162 144.015 91.1576 146.261 98.6494C148.551 106.141 151.785 111.794 155.961 115.607C160.138 119.375 165.1 121.259 170.848 121.259Z" fill="#E6F2FF"/>
<path d="M297.375 142.322C286.282 142.322 276.761 139.518 268.812 133.91C260.908 128.258 254.823 120.115 250.557 109.483C246.335 98.8064 244.225 85.9537 244.225 70.9253C244.27 55.8968 246.403 43.1114 250.624 32.5691C254.891 21.9819 260.976 13.9069 268.88 8.34415C276.829 2.78138 286.327 0 297.375 0C308.422 0 317.921 2.78138 325.87 8.34415C333.819 13.9069 339.904 21.9819 344.125 32.5691C348.392 43.1563 350.525 55.9417 350.525 70.9253C350.525 85.9986 348.392 98.8737 344.125 109.551C339.904 120.183 333.819 128.303 325.87 133.91C317.966 139.518 308.467 142.322 297.375 142.322ZM297.375 121.259C305.997 121.259 312.801 117.02 317.786 108.541C322.816 100.018 325.331 87.479 325.331 70.9253C325.331 59.9792 324.186 50.7827 321.895 43.3357C319.605 35.8888 316.371 30.2812 312.195 26.5129C308.018 22.6997 303.078 20.7931 297.375 20.7931C288.797 20.7931 282.016 25.0549 277.031 33.5785C272.046 42.0572 269.531 54.5061 269.486 70.9253C269.441 81.9162 270.541 91.1576 272.787 98.6494C275.077 106.141 278.311 111.794 282.487 115.607C286.664 119.375 291.626 121.259 297.375 121.259Z" fill="#E6F2FF"/>
</svg>
