<svg width="238" height="117" viewBox="0 0 238 117" fill="none" xmlns="http://www.w3.org/2000/svg">
<rect width="238" height="117" fill="white"/>
<path fill-rule="evenodd" clip-rule="evenodd" d="M202.333 21C206.522 21 209.917 24.3952 209.917 28.5833C209.917 32.7715 206.522 36.1667 202.333 36.1667H159C163.188 36.1667 166.583 39.5618 166.583 43.75C166.583 47.9382 163.188 51.3333 159 51.3333H182.833C187.022 51.3333 190.417 54.7285 190.417 58.9167C190.417 63.1048 187.022 66.5 182.833 66.5H171.812C166.531 66.5 162.25 69.8952 162.25 74.0833C162.25 76.0394 163.313 77.8657 165.44 79.5623C167.457 81.171 170.264 81.3807 172.504 82.6597C174.792 83.9655 176.333 86.4277 176.333 89.25C176.333 93.4382 172.938 96.8333 168.75 96.8333H78.8333C74.6452 96.8333 71.25 93.4382 71.25 89.25C71.25 85.0619 74.6452 81.6667 78.8333 81.6667H36.5833C32.3952 81.6667 29 78.2715 29 74.0833C29 69.8952 32.3952 66.5 36.5833 66.5H79.9167C84.1048 66.5 87.5 63.1048 87.5 58.9167C87.5 54.7285 84.1048 51.3333 79.9167 51.3333H52.8333C48.6452 51.3333 45.25 47.9382 45.25 43.75C45.25 39.5618 48.6452 36.1667 52.8333 36.1667H96.1667C91.9785 36.1667 88.5833 32.7715 88.5833 28.5833C88.5833 24.3952 91.9785 21 96.1667 21H202.333ZM202.333 51.3333C206.522 51.3333 209.917 54.7285 209.917 58.9167C209.917 63.1048 206.522 66.5 202.333 66.5C198.145 66.5 194.75 63.1048 194.75 58.9167C194.75 54.7285 198.145 51.3333 202.333 51.3333Z" fill="#D2E7FF"/>
<path d="M101.5 21.5C101.5 14.5964 107.096 9 114 9C120.904 9 126.5 14.5964 126.5 21.5V29H131.5C138.489 29 141.984 29 144.74 30.1418C148.416 31.6642 151.336 34.5843 152.858 38.2597C154 41.0163 154 44.5109 154 51.5H161.5C168.404 51.5 174 57.0964 174 64C174 70.9036 168.404 76.5 161.5 76.5H154V85C154 93.4008 154 97.6012 152.365 100.81C150.927 103.632 148.632 105.927 145.81 107.365C142.601 109 138.401 109 130 109H126.5V100.25C126.5 94.0368 121.463 89 115.25 89C109.037 89 104 94.0368 104 100.25V109H98C89.5992 109 85.3988 109 82.1901 107.365C79.3677 105.927 77.073 103.632 75.6349 100.81C74 97.6012 74 93.4008 74 85V76.5H81.5C88.4036 76.5 94 70.9036 94 64C94 57.0964 88.4036 51.5 81.5 51.5H74C74 44.5109 74 41.0163 75.1418 38.2597C76.6642 34.5843 79.5843 31.6642 83.2597 30.1418C86.0163 29 89.5109 29 96.5 29H101.5V21.5Z" fill="#A0CCFF" stroke="#6DB1FF" stroke-width="6" stroke-linecap="round" stroke-linejoin="round"/>
<circle cx="148.2" cy="24.2" r="15.2" fill="#76D3AC"/>
<path d="M144.249 19.8335H143.833C141.531 19.8335 139.666 21.699 139.666 24.0002C139.666 26.3014 141.531 28.1668 143.833 28.1668H145.499C147.801 28.1668 149.666 26.3014 149.666 24.0002M151.749 28.1668H152.166C154.467 28.1668 156.333 26.3014 156.333 24.0002C156.333 21.699 154.467 19.8335 152.166 19.8335H150.499C148.198 19.8335 146.333 21.699 146.333 24.0002" stroke="white" stroke-width="2" stroke-linecap="round" stroke-linejoin="round"/>
</svg>
