<svg width="238" height="127" viewBox="0 0 238 127" fill="none" xmlns="http://www.w3.org/2000/svg">
<g id="Group 1000006329">
<g id="Group 1000006326">
<rect id="Rectangle 5741" y="10" width="238" height="117" fill="white"/>
<g id="Group 1000006325">
<path id="Background" fill-rule="evenodd" clip-rule="evenodd" d="M202.333 31C206.522 31 209.917 34.3952 209.917 38.5833C209.917 42.7715 206.522 46.1667 202.333 46.1667H159C163.188 46.1667 166.583 49.5618 166.583 53.75C166.583 57.9382 163.188 61.3333 159 61.3333H182.833C187.022 61.3333 190.417 64.7285 190.417 68.9167C190.417 73.1048 187.022 76.5 182.833 76.5H171.812C166.531 76.5 162.25 79.8952 162.25 84.0833C162.25 86.0394 163.313 87.8657 165.44 89.5623C167.457 91.171 170.264 91.3807 172.504 92.6597C174.792 93.9655 176.333 96.4277 176.333 99.25C176.333 103.438 172.938 106.833 168.75 106.833H78.8333C74.6452 106.833 71.25 103.438 71.25 99.25C71.25 95.0619 74.6452 91.6667 78.8333 91.6667H36.5833C32.3952 91.6667 29 88.2715 29 84.0833C29 79.8952 32.3952 76.5 36.5833 76.5H79.9167C84.1048 76.5 87.5 73.1048 87.5 68.9167C87.5 64.7285 84.1048 61.3333 79.9167 61.3333H52.8333C48.6452 61.3333 45.25 57.9382 45.25 53.75C45.25 49.5618 48.6452 46.1667 52.8333 46.1667H96.1667C91.9785 46.1667 88.5833 42.7715 88.5833 38.5833C88.5833 34.3952 91.9785 31 96.1667 31H202.333ZM202.333 61.3333C206.522 61.3333 209.917 64.7285 209.917 68.9167C209.917 73.1048 206.522 76.5 202.333 76.5C198.145 76.5 194.75 73.1048 194.75 68.9167C194.75 64.7285 198.145 61.3333 202.333 61.3333Z" fill="#D2E7FF"/>
</g>
<path id="Icon" d="M161.5 49V90C161.5 98.4008 161.5 102.601 159.865 105.81C158.427 108.632 156.132 110.927 153.31 112.365C150.101 114 145.901 114 137.5 114H100.5C92.0992 114 87.8988 114 84.6901 112.365C81.8677 110.927 79.573 108.632 78.1349 105.81C76.5 102.601 76.5 98.4008 76.5 90V49M77 24H161C163.8 24 165.2 24 166.27 24.545C167.211 25.0243 167.976 25.7892 168.455 26.73C169 27.7996 169 29.1997 169 32V41C169 43.8003 169 45.2004 168.455 46.27C167.976 47.2108 167.211 47.9757 166.27 48.455C165.2 49 163.8 49 161 49H77C74.1997 49 72.7996 49 71.73 48.455C70.7892 47.9757 70.0243 47.2108 69.545 46.27C69 45.2004 69 43.8003 69 41V32C69 29.1997 69 27.7996 69.545 26.73C70.0243 25.7892 70.7892 25.0243 71.73 24.545C72.7996 24 74.1997 24 77 24Z" stroke="#6DB1FF" stroke-width="6" stroke-linecap="round" stroke-linejoin="round"/>
</g>
<rect id="Rectangle 5742" x="72" y="27" width="94" height="19" rx="2" fill="#A0CCFF"/>
<path id="Rectangle 5743" d="M79.5 52H159V101C159 106.523 154.523 111 149 111H89.5C83.9772 111 79.5 106.523 79.5 101V52Z" fill="#A0CCFF"/>
<rect id="Rectangle 5744" x="96" y="70" width="47" height="19" rx="6" fill="white"/>
<g id="Group 1000006328">
<circle id="Ellipse 105" cx="148.2" cy="15.2" r="15.2" fill="#FFD465"/>
<g id="Group 1000006327">
<circle id="Ellipse 106" cx="147.961" cy="23.0394" r="1.79528" fill="white"/>
<path id="Rectangle 5745" d="M146.165 5.98438H149.756L149.307 20.3466H146.614L146.165 5.98438Z" fill="white"/>
</g>
</g>
</g>
</svg>
