<svg width="16" height="17" viewBox="0 0 16 17" fill="none" xmlns="http://www.w3.org/2000/svg">
<g id="settings-01">
<g id="Icon">
<path d="M7.99992 10.5002C9.10449 10.5002 9.99992 9.60473 9.99992 8.50016C9.99992 7.39559 9.10449 6.50016 7.99992 6.50016C6.89535 6.50016 5.99992 7.39559 5.99992 8.50016C5.99992 9.60473 6.89535 10.5002 7.99992 10.5002Z" stroke="#3893FF" stroke-width="1.5" stroke-linecap="round" stroke-linejoin="round"/>
<path d="M12.4848 10.3183C12.4041 10.5011 12.38 10.7039 12.4157 10.9005C12.4513 11.0971 12.545 11.2785 12.6848 11.4214L12.7211 11.4577C12.8338 11.5703 12.9232 11.704 12.9842 11.8511C13.0452 11.9983 13.0766 12.156 13.0766 12.3153C13.0766 12.4746 13.0452 12.6323 12.9842 12.7795C12.9232 12.9266 12.8338 13.0603 12.7211 13.1729C12.6086 13.2856 12.4749 13.375 12.3277 13.436C12.1806 13.497 12.0228 13.5284 11.8636 13.5284C11.7043 13.5284 11.5465 13.497 11.3994 13.436C11.2522 13.375 11.1186 13.2856 11.006 13.1729L10.9696 13.1365C10.8268 12.9968 10.6454 12.9031 10.4488 12.8674C10.2522 12.8318 10.0494 12.8559 9.86659 12.9365C9.68733 13.0134 9.53445 13.1409 9.42677 13.3035C9.31909 13.4661 9.2613 13.6567 9.26052 13.8517V13.9547C9.26052 14.2762 9.13282 14.5845 8.9055 14.8118C8.67819 15.0391 8.36988 15.1668 8.0484 15.1668C7.72693 15.1668 7.41862 15.0391 7.1913 14.8118C6.96399 14.5845 6.83628 14.2762 6.83628 13.9547V13.9002C6.83159 13.6996 6.76666 13.505 6.64993 13.3418C6.53319 13.1786 6.37006 13.0543 6.18174 12.985C5.99894 12.9043 5.79617 12.8803 5.59956 12.9159C5.40296 12.9516 5.22154 13.0453 5.07871 13.185L5.04234 13.2214C4.92977 13.3341 4.79609 13.4235 4.64894 13.4845C4.50179 13.5455 4.34406 13.5769 4.18477 13.5769C4.02548 13.5769 3.86775 13.5455 3.7206 13.4845C3.57345 13.4235 3.43976 13.3341 3.32719 13.2214C3.21449 13.1088 3.12509 12.9751 3.06409 12.828C3.00309 12.6808 2.97169 12.5231 2.97169 12.3638C2.97169 12.2045 3.00309 12.0468 3.06409 11.8996C3.12509 11.7525 3.21449 11.6188 3.32719 11.5062L3.36356 11.4699C3.50327 11.327 3.597 11.1456 3.63265 10.949C3.6683 10.7524 3.64423 10.5496 3.56355 10.3668C3.48673 10.1876 3.35916 10.0347 3.19656 9.92702C3.03396 9.81933 2.84343 9.76155 2.6484 9.76077H2.54537C2.2239 9.76077 1.91559 9.63306 1.68827 9.40575C1.46096 9.17843 1.33325 8.87012 1.33325 8.54865C1.33325 8.22717 1.46096 7.91887 1.68827 7.69155C1.91559 7.46423 2.2239 7.33653 2.54537 7.33653H2.59992C2.80052 7.33183 2.99507 7.2669 3.15828 7.15017C3.32149 7.03344 3.44581 6.87031 3.51507 6.68198C3.59575 6.49918 3.61981 6.29641 3.58416 6.09981C3.54852 5.9032 3.45479 5.72179 3.31507 5.57895L3.27871 5.54259C3.16601 5.43001 3.0766 5.29633 3.0156 5.14918C2.9546 5.00203 2.92321 4.8443 2.92321 4.68501C2.92321 4.52572 2.9546 4.36799 3.0156 4.22084C3.0766 4.07369 3.16601 3.94001 3.27871 3.82744C3.39128 3.71474 3.52496 3.62533 3.67211 3.56433C3.81926 3.50333 3.97699 3.47194 4.13628 3.47194C4.29557 3.47194 4.4533 3.50333 4.60045 3.56433C4.7476 3.62533 4.88128 3.71474 4.99386 3.82744L5.03022 3.8638C5.17306 4.00352 5.35447 4.09725 5.55108 4.13289C5.74768 4.16854 5.95045 4.14448 6.13325 4.0638H6.18174C6.36099 3.98697 6.51387 3.85941 6.62155 3.69681C6.72923 3.53421 6.78702 3.34367 6.7878 3.14865V3.04562C6.7878 2.72414 6.9155 2.41584 7.14282 2.18852C7.37014 1.9612 7.67844 1.8335 7.99992 1.8335C8.32139 1.8335 8.6297 1.9612 8.85702 2.18852C9.08433 2.41584 9.21204 2.72414 9.21204 3.04562V3.10016C9.21282 3.29518 9.27061 3.48572 9.37829 3.64832C9.48597 3.81092 9.63885 3.93849 9.8181 4.01531C10.0009 4.09599 10.2037 4.12006 10.4003 4.08441C10.5969 4.04876 10.7783 3.95503 10.9211 3.81531L10.9575 3.77895C11.0701 3.66625 11.2038 3.57685 11.3509 3.51585C11.4981 3.45485 11.6558 3.42345 11.8151 3.42345C11.9744 3.42345 12.1321 3.45485 12.2792 3.51585C12.4264 3.57685 12.5601 3.66625 12.6726 3.77895C12.7853 3.89152 12.8748 4.02521 12.9357 4.17236C12.9967 4.31951 13.0281 4.47723 13.0281 4.63653C13.0281 4.79582 12.9967 4.95355 12.9357 5.1007C12.8748 5.24785 12.7853 5.38153 12.6726 5.4941L12.6363 5.53047C12.4966 5.6733 12.4028 5.85472 12.3672 6.05132C12.3315 6.24792 12.3556 6.4507 12.4363 6.6335V6.68198C12.5131 6.86124 12.6407 7.01411 12.8033 7.1218C12.9659 7.22948 13.1564 7.28726 13.3514 7.28804H13.4545C13.7759 7.28804 14.0842 7.41575 14.3116 7.64306C14.5389 7.87038 14.6666 8.17869 14.6666 8.50016C14.6666 8.82164 14.5389 9.12995 14.3116 9.35726C14.0842 9.58458 13.7759 9.71228 13.4545 9.71228H13.3999C13.2049 9.71306 13.0144 9.77085 12.8518 9.87853C12.6892 9.98621 12.5616 10.1391 12.4848 10.3183Z" stroke="#3893FF" stroke-width="1.5" stroke-linecap="round" stroke-linejoin="round"/>
</g>
</g>
</svg>
