<svg width="16" height="17" viewBox="0 0 16 17" fill="none" xmlns="http://www.w3.org/2000/svg">
<g id="rocket-02">
<path id="Icon" d="M8.00008 10.4998L6.00008 8.49984M8.00008 10.4998C8.93131 10.1457 9.82467 9.69899 10.6667 9.16651M8.00008 10.4998V13.8332C8.00008 13.8332 10.0201 13.4665 10.6667 12.4998C11.3867 11.4198 10.6667 9.16651 10.6667 9.16651M6.00008 8.49984C6.35484 7.57946 6.80155 6.69722 7.33341 5.86651C8.1102 4.6245 9.19183 3.60187 10.4754 2.8959C11.759 2.18993 13.2019 1.82409 14.6667 1.83317C14.6667 3.64651 14.1467 6.83317 10.6667 9.16651M6.00008 8.49984H2.66675C2.66675 8.49984 3.03341 6.47984 4.00008 5.83317C5.08008 5.11317 7.33341 5.83317 7.33341 5.83317M3.00008 11.4998C2.00008 12.3398 1.66675 14.8332 1.66675 14.8332C1.66675 14.8332 4.16008 14.4998 5.00008 13.4998C5.47341 12.9398 5.46675 12.0798 4.94008 11.5598C4.68095 11.3125 4.33961 11.1696 3.98157 11.1585C3.62352 11.1475 3.274 11.269 3.00008 11.4998Z" stroke="#D38AF5" stroke-width="1.5" stroke-linecap="round" stroke-linejoin="round"/>
</g>
</svg>
