<svg width="16" height="17" viewBox="0 0 16 17" fill="none" xmlns="http://www.w3.org/2000/svg">
<g id="file-05">
<path id="Icon" d="M9.33341 2.01318V4.76688C9.33341 5.14025 9.33341 5.32693 9.40608 5.46954C9.46999 5.59498 9.57198 5.69697 9.69742 5.76088C9.84003 5.83354 10.0267 5.83354 10.4001 5.83354H13.1538M9.33341 11.8335H5.33341M10.6667 9.16683H5.33341M13.3334 7.15898V11.9668C13.3334 13.0869 13.3334 13.647 13.1154 14.0748C12.9237 14.4511 12.6177 14.7571 12.2414 14.9488C11.8136 15.1668 11.2535 15.1668 10.1334 15.1668H5.86675C4.74664 15.1668 4.18659 15.1668 3.75877 14.9488C3.38244 14.7571 3.07648 14.4511 2.88473 14.0748C2.66675 13.647 2.66675 13.0869 2.66675 11.9668V5.0335C2.66675 3.91339 2.66675 3.35334 2.88473 2.92552C3.07648 2.54919 3.38244 2.24323 3.75877 2.05148C4.18659 1.8335 4.74664 1.8335 5.86675 1.8335H8.00793C8.49711 1.8335 8.7417 1.8335 8.97188 1.88876C9.17595 1.93775 9.37104 2.01856 9.54998 2.12822C9.75182 2.2519 9.92477 2.42485 10.2707 2.77075L12.3962 4.89624C12.7421 5.24214 12.915 5.41509 13.0387 5.61693C13.1484 5.79587 13.2292 5.99096 13.2782 6.19503C13.3334 6.42521 13.3334 6.6698 13.3334 7.15898Z" stroke="#F4BE8D" stroke-width="1.5" stroke-linecap="round" stroke-linejoin="round"/>
</g>
</svg>
