<svg width="16" height="16" viewBox="0 0 16 16" fill="none" xmlns="http://www.w3.org/2000/svg">
<g id="puzzle-piece-01" clip-path="url(#clip0_2260_1685)">
<path id="Icon" d="M4.9987 2.99992C4.9987 2.07944 5.74489 1.33325 6.66536 1.33325C7.58584 1.33325 8.33203 2.07944 8.33203 2.99992V3.99992H8.9987C9.93058 3.99992 10.3965 3.99992 10.7641 4.15216C11.2541 4.35515 11.6435 4.7445 11.8465 5.23455C11.9987 5.60209 11.9987 6.06804 11.9987 6.99992H12.9987C13.9192 6.99992 14.6654 7.74611 14.6654 8.66659C14.6654 9.58706 13.9192 10.3333 12.9987 10.3333H11.9987V11.4666C11.9987 12.5867 11.9987 13.1467 11.7807 13.5746C11.589 13.9509 11.283 14.2569 10.9067 14.4486C10.4789 14.6666 9.9188 14.6666 8.7987 14.6666H8.33203V13.4999C8.33203 12.6715 7.66046 11.9999 6.83203 11.9999C6.0036 11.9999 5.33203 12.6715 5.33203 13.4999V14.6666H4.53203C3.41193 14.6666 2.85187 14.6666 2.42405 14.4486C2.04773 14.2569 1.74176 13.9509 1.55002 13.5746C1.33203 13.1467 1.33203 12.5867 1.33203 11.4666V10.3333H2.33203C3.25251 10.3333 3.9987 9.58706 3.9987 8.66659C3.9987 7.74611 3.25251 6.99992 2.33203 6.99992H1.33203C1.33203 6.06804 1.33203 5.60209 1.48427 5.23455C1.68726 4.7445 2.07661 4.35515 2.56666 4.15216C2.93421 3.99992 3.40015 3.99992 4.33203 3.99992H4.9987V2.99992Z" stroke="#76D3AC" stroke-width="1.5" stroke-linecap="round" stroke-linejoin="round"/>
</g>
<defs>
<clipPath id="clip0_2260_1685">
<rect width="16" height="16" fill="white"/>
</clipPath>
</defs>
</svg>
