<svg width="16" height="17" viewBox="0 0 16 17" fill="none" xmlns="http://www.w3.org/2000/svg">
<g id="message-text-square-01">
<path id="Icon" d="M4.66667 6.16667H8M4.66667 8.5H10M6.45583 12.5H10.8C11.9201 12.5 12.4802 12.5 12.908 12.282C13.2843 12.0903 13.5903 11.7843 13.782 11.408C14 10.9802 14 10.4201 14 9.3V5.7C14 4.57989 14 4.01984 13.782 3.59202C13.5903 3.21569 13.2843 2.90973 12.908 2.71799C12.4802 2.5 11.9201 2.5 10.8 2.5H5.2C4.0799 2.5 3.51984 2.5 3.09202 2.71799C2.71569 2.90973 2.40973 3.21569 2.21799 3.59202C2 4.01984 2 4.5799 2 5.7V14.057C2 14.4122 2 14.5898 2.07282 14.6811C2.13615 14.7604 2.23218 14.8066 2.33369 14.8065C2.45042 14.8063 2.58911 14.6954 2.8665 14.4735L4.45681 13.2012C4.78168 12.9413 4.94411 12.8114 5.12499 12.719C5.28547 12.637 5.45628 12.5771 5.63281 12.5408C5.83178 12.5 6.0398 12.5 6.45583 12.5Z" stroke="#F58AA4" stroke-width="1.5" stroke-linecap="round" stroke-linejoin="round"/>
</g>
</svg>
