<svg width="16" height="17" viewBox="0 0 16 17" fill="none" xmlns="http://www.w3.org/2000/svg">
<g id="package">
<path id="Icon" d="M13.6666 5.35173L7.99998 8.49987M7.99998 8.49987L2.33331 5.35173M7.99998 8.49987L8 14.8332M14 11.2056V5.79419C14 5.56576 14 5.45155 13.9663 5.34968C13.9366 5.25956 13.8879 5.17684 13.8236 5.10705C13.7509 5.02816 13.651 4.97269 13.4514 4.86176L8.51802 2.12102C8.32895 2.01598 8.23442 1.96346 8.1343 1.94287C8.0457 1.92464 7.95431 1.92464 7.8657 1.94287C7.76559 1.96346 7.67105 2.01598 7.48198 2.12102L2.54865 4.86176C2.34896 4.97269 2.24912 5.02816 2.17642 5.10705C2.11211 5.17684 2.06343 5.25957 2.03366 5.34968C2 5.45155 2 5.56576 2 5.79419V11.2056C2 11.434 2 11.5482 2.03366 11.6501C2.06343 11.7402 2.11211 11.8229 2.17642 11.8927C2.24912 11.9716 2.34897 12.0271 2.54865 12.138L7.48198 14.8788C7.67105 14.9838 7.76559 15.0363 7.8657 15.0569C7.95431 15.0751 8.0457 15.0751 8.1343 15.0569C8.23442 15.0363 8.32895 14.9838 8.51802 14.8788L13.4514 12.138C13.651 12.0271 13.7509 11.9716 13.8236 11.8927C13.8879 11.8229 13.9366 11.7402 13.9663 11.6501C14 11.5482 14 11.434 14 11.2056Z" stroke="#76D3AC" stroke-width="1.5" stroke-linecap="round" stroke-linejoin="round"/>
<path id="Icon_2" d="M11 6.83333L5 3.5" stroke="#76D3AC" stroke-width="1.5" stroke-linecap="round" stroke-linejoin="round"/>
</g>
</svg>
