<svg width="16" height="17" viewBox="0 0 16 17" fill="none" xmlns="http://www.w3.org/2000/svg">
<g id="package">
<path id="Icon" d="M13.6666 5.35185L7.99998 8.5M7.99998 8.5L2.33331 5.35185M7.99998 8.5L8 14.8333M14 11.2057V5.79431C14 5.56588 14 5.45167 13.9663 5.3498C13.9366 5.25969 13.8879 5.17696 13.8236 5.10717C13.7509 5.02828 13.651 4.97281 13.4514 4.86188L8.51802 2.12114C8.32895 2.0161 8.23442 1.96358 8.1343 1.94299C8.0457 1.92477 7.95431 1.92477 7.8657 1.94299C7.76559 1.96358 7.67105 2.0161 7.48198 2.12114L2.54865 4.86188C2.34896 4.97281 2.24912 5.02828 2.17642 5.10717C2.11211 5.17697 2.06343 5.25969 2.03366 5.34981C2 5.45167 2 5.56588 2 5.79431V11.2057C2 11.4341 2 11.5484 2.03366 11.6502C2.06343 11.7403 2.11211 11.8231 2.17642 11.8929C2.24912 11.9718 2.34897 12.0272 2.54865 12.1382L7.48198 14.8789C7.67105 14.9839 7.76559 15.0365 7.8657 15.057C7.95431 15.0753 8.0457 15.0753 8.1343 15.057C8.23442 15.0365 8.32895 14.9839 8.51802 14.8789L13.4514 12.1382C13.651 12.0272 13.7509 11.9718 13.8236 11.8929C13.8879 11.8231 13.9366 11.7403 13.9663 11.6502C14 11.5484 14 11.4341 14 11.2057Z" stroke="#76D3AC" stroke-width="1.5" stroke-linecap="round" stroke-linejoin="round"/>
<path id="Icon_2" d="M11 6.83333L5 3.5" stroke="#76D3AC" stroke-width="1.5" stroke-linecap="round" stroke-linejoin="round"/>
</g>
</svg>
