<svg width="60" height="60" viewBox="0 0 60 60" fill="none" xmlns="http://www.w3.org/2000/svg">
<g id="Group 1000006340">
<rect id="Rectangle 5746" width="60" height="60" rx="10" fill="#FFF8E7"/>
<g id="Group 1000006954">
<path id="Vector" d="M27.96 12.448L12.1296 18.9983C11.2493 19.3626 11.2584 20.6132 12.1443 20.9644L28.0407 27.2682C29.4374 27.8221 30.9928 27.8221 32.3895 27.2682L48.2861 20.9641C49.1717 20.6132 49.1813 19.3628 48.3005 18.9985L32.4706 12.4477C31.0264 11.8501 29.404 11.8501 27.9598 12.4477" fill="#FCB400"/>
<path id="Vector_2" d="M31.6255 30.7103V46.4584C31.6255 47.2072 32.3808 47.7203 33.077 47.4443L50.7904 40.5688C50.988 40.4905 51.1575 40.3546 51.2769 40.1788C51.3963 40.003 51.4601 39.7954 51.46 39.5829V23.835C51.46 23.086 50.7048 22.5731 50.0085 22.8491L32.2951 29.7246C32.0976 29.803 31.9281 29.9389 31.8087 30.1147C31.6894 30.2905 31.6255 30.4978 31.6255 30.7103Z" fill="#18BFFF"/>
<path id="Vector_3" d="M27.4891 31.5232L22.2322 34.0615L21.6984 34.3195L10.6013 39.6367C9.89808 39.976 9 39.4634 9 38.682V23.9013C9 23.6186 9.14496 23.3745 9.33936 23.1909C9.41911 23.1115 9.50959 23.0436 9.60816 22.9893C9.87312 22.8302 10.2514 22.7877 10.573 22.9149L27.4008 29.5826C28.2562 29.922 28.3234 31.1203 27.4891 31.5232Z" fill="#F82B60"/>
<path id="Vector_4" d="M27.4891 31.5232L22.2322 34.0615L9.33936 23.1907C9.41912 23.1113 9.5096 23.0436 9.60816 22.9893C9.87312 22.8302 10.2514 22.7877 10.573 22.9149L27.4008 29.5826C28.2562 29.922 28.3234 31.1203 27.4891 31.5232Z" fill="black" fill-opacity="0.25"/>
</g>
</g>
</svg>
