<svg width="200" height="200" viewBox="0 0 200 200" fill="none" xmlns="http://www.w3.org/2000/svg">
<circle cx="100" cy="100" r="100" fill="#ECF5FF"/>
<g clip-path="url(#clip0_452_822)">
<path d="M61.675 157.304L31.2206 104.554C29.5931 101.737 29.5931 98.2631 31.2206 95.4456L61.675 42.6984C63.3003 39.8831 66.3016 38.1484 69.55 38.1441H130.487C133.725 38.1594 136.711 39.8941 138.329 42.6984L168.779 95.4456C170.407 98.2631 170.407 101.737 168.779 104.554L138.325 157.304C136.7 160.119 133.698 161.854 130.45 161.858H69.5281C66.2841 161.847 63.2938 160.113 61.6684 157.304H61.675Z" fill="#4386FA"/>
<path opacity="0.1" d="M119.025 83.0141C119.025 83.0141 127.49 103.321 115.949 114.831C104.408 126.342 83.3926 118.974 83.3926 118.974L126.141 161.841H130.481C133.731 161.836 136.733 160.099 138.356 157.286L158.516 122.378L119.025 83.0141Z" fill="black"/>
<path d="M129.021 124.566L119.687 115.21C119.586 115.106 119.469 115.017 119.342 114.947C123.312 109.833 125.183 103.398 124.574 96.952C123.965 90.5064 120.921 84.5355 116.063 80.2559C111.205 75.9763 104.897 73.71 98.4264 73.9186C91.9554 74.1273 85.8074 76.7952 81.235 81.3789C76.6625 85.9626 74.0097 92.1171 73.817 98.5886C73.6242 105.06 75.906 111.362 80.1976 116.209C84.4891 121.057 90.4674 124.086 96.9146 124.68C103.362 125.273 109.792 123.386 114.897 119.403C114.963 119.524 115.047 119.634 115.144 119.731L124.5 129.087C124.775 129.362 125.147 129.516 125.536 129.516C125.924 129.516 126.297 129.362 126.571 129.087L129.021 126.637C129.296 126.362 129.45 125.99 129.45 125.601C129.45 125.213 129.296 124.84 129.021 124.566ZM99.2124 118.515C95.4266 118.515 91.7256 117.393 88.5776 115.29C85.4296 113.187 82.976 110.198 81.527 106.7C80.078 103.203 79.6988 99.3539 80.4373 95.6408C81.1758 91.9276 82.9988 88.5169 85.6758 85.8399C88.3528 83.1629 91.7635 81.3399 95.4766 80.6014C99.1897 79.863 103.038 80.2422 106.536 81.6912C110.034 83.1401 113.023 85.5938 115.126 88.7418C117.229 91.8898 118.351 95.5907 118.351 99.3766C118.35 104.452 116.334 109.32 112.745 112.909C109.156 116.498 104.288 118.514 99.2124 118.515ZM86.9777 98.355V106.265C88.1962 108.415 89.9593 110.209 92.0921 111.46V98.3069L86.9777 98.355ZM96.5481 91.7969V113.173C98.2386 113.485 99.9719 113.485 101.662 113.173V91.7969H96.5481ZM111.344 106.248V101.562H106.234V111.406C108.364 110.158 110.128 108.371 111.349 106.226L111.344 106.248Z" fill="#ECF5FF"/>
</g>
<defs>
<clipPath id="clip0_452_822">
<rect width="140" height="140" fill="white" transform="translate(30 30)"/>
</clipPath>
</defs>
</svg>
