<?xml version="1.0" encoding="UTF-8"?>
<svg version="1.1" xmlns="http://www.w3.org/2000/svg" width="204" height="192">
<path d="M0 0 C67.32 0 134.64 0 204 0 C204 63.36 204 126.72 204 192 C136.68 192 69.36 192 0 192 C0 128.64 0 65.28 0 0 Z " fill="#D7DEE2" transform="translate(0,0)"/>
<path d="M0 0 C67.32 0 134.64 0 204 0 C204 63.36 204 126.72 204 192 C136.68 192 69.36 192 0 192 C0 128.64 0 65.28 0 0 Z M39 14 C37.83773739 17.48678784 37.86759903 20.6000412 37.88647461 24.2253418 C37.88632858 24.95729767 37.88618256 25.68925354 37.8860321 26.44338989 C37.8867286 28.86202969 37.89450872 31.28059241 37.90234375 33.69921875 C37.90420886 35.37644916 37.90563233 37.05368011 37.90663147 38.73091125 C37.9104493 43.14500432 37.92027334 47.55906447 37.93133545 51.97314453 C37.94156533 56.47753453 37.94613247 60.98192985 37.95117188 65.48632812 C37.96189625 74.32423321 37.97896389 83.16211387 38 92 C37.31800537 91.98622314 36.63601074 91.97244629 35.93334961 91.95825195 C35.03624268 91.94753662 34.13913574 91.93682129 33.21484375 91.92578125 C32.32659912 91.91200439 31.43835449 91.89822754 30.52319336 91.8840332 C27.02066605 92.04501051 24.84977812 92.98430328 22 95 C18.87157599 99.11629517 18.62114211 102.2694893 18.61181641 107.37304688 C18.60655945 108.09726334 18.60130249 108.8214798 18.59588623 109.56764221 C18.58272767 111.95156693 18.5914092 114.33481899 18.6015625 116.71875 C18.59954056 118.3811455 18.59662813 120.04354014 18.59286499 121.70593262 C18.58844727 125.18603988 18.59485482 128.66591577 18.60888672 132.14599609 C18.6259784 136.60153369 18.61613425 141.0565291 18.59816933 145.51204681 C18.58731651 148.94362455 18.59078468 152.37507424 18.5985527 155.80665588 C18.60055057 157.44926518 18.59810995 159.0918862 18.59111404 160.73448181 C18.58347473 163.03228443 18.59513754 165.32921525 18.61181641 167.62695312 C18.61420319 168.93313599 18.61658997 170.23931885 18.61904907 171.58508301 C19.02745072 175.24607349 19.77137689 177.10014428 22 180 C25.51936945 182.3462463 26.9618168 182.25681675 31.12886047 182.27415466 C32.41167908 182.28412979 33.69449768 182.29410492 35.01618958 182.30438232 C36.44088733 182.30527815 37.86558524 182.30594171 39.2902832 182.30639648 C40.78836481 182.31401672 42.28644249 182.32244398 43.78451538 182.33161926 C47.85693228 182.3535863 51.92927409 182.36236626 56.00174356 182.36744571 C58.54612067 182.37108708 61.09047804 182.37732603 63.63484764 182.3844471 C72.51170085 182.40895053 81.38849556 182.42199514 90.26538086 182.42553711 C98.53894787 182.42917174 106.81214375 182.45905942 115.08559734 182.50094169 C122.18889046 182.53563925 129.29206059 182.55108547 136.3954379 182.55178314 C140.63789347 182.55257623 144.87997124 182.56132893 149.12233925 182.58978081 C153.11404544 182.61595217 157.10506039 182.6181724 161.0968132 182.60212517 C162.56012542 182.60030982 164.02347729 182.60700938 165.48670387 182.62294388 C174.20090073 183.03431109 174.20090073 183.03431109 181.85490417 179.58753967 C184.83286379 175.99535113 185.13224286 174.3112613 185.19287109 169.72753906 C185.20893402 168.62589417 185.22499695 167.52424927 185.24154663 166.38922119 C185.28595086 161.34379642 185.32706703 156.29850415 185.35009766 151.25292969 C185.36342106 148.59084893 185.39393202 145.93058406 185.43212891 143.26855469 C185.48688091 139.43400974 185.50877129 135.60050817 185.5234375 131.765625 C185.55744156 129.98409027 185.55744156 129.98409027 185.59213257 128.16656494 C185.68895251 121.23159668 185.68895251 121.23159668 182.59228516 115.26464844 C179.20371064 112.30435298 177.75600307 111.87491424 173.375 111.9375 C172.55773437 111.94652344 171.74046875 111.95554687 170.8984375 111.96484375 C170.27195313 111.97644531 169.64546875 111.98804687 169 112 C169.02664734 110.84940598 169.02664734 110.84940598 169.05383301 109.67556763 C169.2148377 102.40905487 169.33627944 95.14341935 169.41449738 87.87558174 C169.45606499 84.13990675 169.51233982 80.40571808 169.60351562 76.67089844 C169.69112327 73.05919924 169.73841235 69.44891939 169.75901794 65.83623886 C169.77368038 64.46548003 169.80231315 63.09478973 169.84584045 61.72464371 C170.11389274 52.92856586 169.21233552 47.67901987 163.0952301 41.16038513 C162.40380417 40.44745804 161.71237823 39.73453094 161 39 C159.70573111 37.33862281 158.4306417 35.66195233 157.18359375 33.96484375 C156.56419922 33.13533203 155.94480469 32.30582031 155.30664062 31.45117188 C154.38141602 30.2069043 154.38141602 30.2069043 153.4375 28.9375 C152.18701779 27.25850364 150.93571991 25.58011447 149.68359375 23.90234375 C149.14275146 23.17523193 148.60190918 22.44812012 148.04467773 21.69897461 C147.36993408 20.80831299 146.69519043 19.91765137 146 19 C145.65676697 18.24959946 145.31353394 17.49919891 144.9598999 16.72605896 C143.26040723 13.64005875 141.91597669 12.02214332 139 10 C132.14168271 8.24032116 124.72663295 8.85790308 117.7109375 8.98046875 C115.60300473 8.98710759 113.49505871 8.99033717 111.38711548 8.99031067 C106.97678105 8.99959036 102.5680982 9.03877058 98.15820312 9.10131836 C92.5075456 9.1806698 86.85851723 9.20297478 81.20735741 9.20516491 C76.8577796 9.21013863 72.50855008 9.23641342 68.15910721 9.27004433 C66.07553531 9.28527702 63.99192496 9.29595675 61.90830612 9.30199242 C58.99729556 9.31538361 56.08786946 9.3552876 53.17724609 9.40307617 C52.31789963 9.40283447 51.45855316 9.40259277 50.57316589 9.40234375 C45.49550403 9.52037215 42.61982866 10.08666046 39 14 Z " fill="#FEFEFE" transform="translate(0,0)"/>
<path d="M0 0 C0 6.27 0 12.54 0 19 C2.61091049 18.98334541 2.61091049 18.98334541 5.27456665 18.96635437 C21.66643149 18.86506022 38.05822052 18.78977313 54.45032692 18.74093914 C62.87798259 18.7151645 71.30540452 18.68002835 79.73291016 18.62280273 C87.07889347 18.57294483 94.4247075 18.54070359 101.77085531 18.52955753 C105.66018022 18.52304271 109.54902086 18.50774725 113.43819046 18.47134972 C117.10069086 18.43735198 120.76250861 18.42695431 124.42515182 18.43446159 C126.40648872 18.43243523 128.38775164 18.4055597 130.36889648 18.37789917 C140.08300629 18.43418524 140.08300629 18.43418524 143.78329468 21.41047668 C146.84917238 24.99199097 147.13172312 26.64944429 147.19287109 31.27246094 C147.20893402 32.37410583 147.22499695 33.47575073 147.24154663 34.61077881 C147.28595086 39.65620358 147.32706703 44.70149585 147.35009766 49.74707031 C147.36342106 52.40915107 147.39393202 55.06941594 147.43212891 57.73144531 C147.48688091 61.56599026 147.50877129 65.39949183 147.5234375 69.234375 C147.55744156 71.01590973 147.55744156 71.01590973 147.59213257 72.83343506 C147.56856539 82.04728381 147.56856539 82.04728381 144.59228516 85.73535156 C140.78910006 89.05785532 138.96458683 89.12912231 133.98466492 89.15390015 C132.70177582 89.16250061 131.41888672 89.17110107 130.09712219 89.17996216 C128.66720622 89.18439752 127.23728981 89.18869587 125.80737305 89.19287109 C124.3078187 89.20077102 122.80826625 89.2090399 121.30871582 89.21765137 C116.37640197 89.2438829 111.44407957 89.25917954 106.51171875 89.2734375 C104.8148428 89.27879661 103.11796691 89.28417411 101.42109108 89.28956985 C94.3636114 89.31119972 87.30613402 89.32993721 80.24862957 89.34119225 C70.12854441 89.35743664 60.00884289 89.39062481 49.88890237 89.44759309 C42.77631613 89.48626942 35.6638326 89.50582215 28.55114394 89.51111281 C24.30142037 89.51476931 20.05210586 89.52682174 15.80249596 89.55921555 C11.80426524 89.58925616 7.80669195 89.59562274 3.8083725 89.58383179 C2.34140639 89.58361072 0.87441014 89.59194377 -0.5924511 89.60948563 C-2.59607737 89.63214115 -4.6000012 89.62090903 -6.60371399 89.60800171 C-7.724782 89.61131186 -8.84585001 89.614622 -10.00088978 89.61803246 C-13.95549013 88.8031003 -15.44964837 87.05065954 -18 84 C-19.48960346 81.02079307 -19.15202101 78.30725695 -19.17700195 74.98339844 C-19.18357315 74.26122635 -19.19014435 73.53905426 -19.19691467 72.79499817 C-19.21665981 70.39978942 -19.22831399 68.00464346 -19.23828125 65.609375 C-19.24235678 64.79125587 -19.2464323 63.97313675 -19.25063133 63.13022614 C-19.27149901 58.79857129 -19.28579669 54.46694817 -19.29516602 50.13525391 C-19.30622142 45.66511788 -19.34060892 41.19548089 -19.38033772 36.72552109 C-19.40651142 33.28535042 -19.41485859 29.8452984 -19.41844749 26.40503693 C-19.42331291 24.75763841 -19.43492571 23.11024518 -19.45348549 21.46294403 C-19.47789007 19.15295682 -19.47690998 16.84425692 -19.4699707 14.53417969 C-19.47583694 13.22116882 -19.48170319 11.90815796 -19.48774719 10.55535889 C-18.91780416 6.40084598 -17.61710906 4.23651891 -15 1 C-10.73840618 -1.13079691 -4.59236298 -0.04502317 0 0 Z " fill="#1FB35B" transform="translate(38,93)"/>
<path d="M0 0 C3.35799805 1.40665531 4.99621441 2.94670599 7.1015625 5.89453125 C7.66963623 6.67948975 8.23770996 7.46444824 8.82299805 8.27319336 C9.41765869 9.11116455 10.01231934 9.94913574 10.625 10.8125 C11.87258701 12.5398654 13.12129127 14.26642439 14.37109375 15.9921875 C14.98452637 16.84264648 15.59795898 17.69310547 16.22998047 18.56933594 C18.65828285 21.90398126 21.15858121 25.1788075 23.6875 28.4375 C25.1255427 30.2912458 26.56313403 32.14534196 28 34 C28.87591797 35.06927734 28.87591797 35.06927734 29.76953125 36.16015625 C31 38 31 38 31 41 C26.93787788 41.14547545 22.87642713 41.23413226 18.8125 41.3125 C17.66201172 41.35439453 16.51152344 41.39628906 15.32617188 41.43945312 C6.95891927 41.56071766 6.95891927 41.56071766 4.11865234 39.89990234 C2.76171875 38.54296875 2.76171875 38.54296875 1 36 C0.67 35.67 0.34 35.34 0 35 C-0.08851529 32.40640678 -0.11525945 29.83960309 -0.09765625 27.24609375 C-0.09553383 26.08292381 -0.09553383 26.08292381 -0.09336853 24.89625549 C-0.08775345 22.40996506 -0.07519846 19.9237634 -0.0625 17.4375 C-0.05748694 15.75586067 -0.0529237 14.07421994 -0.04882812 12.39257812 C-0.03777913 8.26168434 -0.02050445 4.13085724 0 0 Z " fill="#AFBDC7" transform="translate(137,10)"/>
<path d="M0 0 C1.31613281 -0.04898438 2.63226563 -0.09796875 3.98828125 -0.1484375 C7.6875 0.375 7.6875 0.375 10.6484375 2.62890625 C13.60648672 6.6126392 13.09538141 8.5619994 12.6875 13.375 C11.0375 13.705 9.3875 14.035 7.6875 14.375 C6.6975 12.065 5.7075 9.755 4.6875 7.375 C1.3875 7.375 -1.9125 7.375 -5.3125 7.375 C-5.3125 9.355 -5.3125 11.335 -5.3125 13.375 C-4.18070313 13.84550781 -3.04890625 14.31601563 -1.8828125 14.80078125 C-0.40084018 15.42921255 1.08091973 16.05814496 2.5625 16.6875 C3.68205078 17.1505957 3.68205078 17.1505957 4.82421875 17.62304688 C5.53964844 17.92919922 6.25507812 18.23535156 6.9921875 18.55078125 C7.65202637 18.82833252 8.31186523 19.10588379 8.99169922 19.3918457 C10.6875 20.375 10.6875 20.375 12.6875 23.375 C13.05859375 25.42578125 13.05859375 25.42578125 13.125 27.6875 C13.16496094 28.42613281 13.20492187 29.16476563 13.24609375 29.92578125 C12.41228444 33.58171439 10.63627477 36.13881959 7.6875 38.375 C4.67416302 38.94401592 2.59952679 39.13632112 -0.375 39 C-1.43557617 39.00966797 -1.43557617 39.00966797 -2.51757812 39.01953125 C-5.90234444 38.94961119 -7.98323132 38.60921663 -10.76171875 36.6328125 C-12.48690053 34.12108688 -12.88505408 32.6415807 -13.0625 29.625 C-13.11921875 28.82578125 -13.1759375 28.0265625 -13.234375 27.203125 C-13.26015625 26.59984375 -13.2859375 25.9965625 -13.3125 25.375 C-11.6625 25.045 -10.0125 24.715 -8.3125 24.375 C-7.3225 26.685 -6.3325 28.995 -5.3125 31.375 C-2.0125 31.375 1.2875 31.375 4.6875 31.375 C5.0175 29.725 5.3475 28.075 5.6875 26.375 C4.12630578 25.58076139 2.56348036 24.78972877 1 24 C0.12988281 23.55914062 -0.74023438 23.11828125 -1.63671875 22.6640625 C-4.27869625 21.3397111 -4.27869625 21.3397111 -7 20.37890625 C-10.51659917 18.85227451 -11.59918033 16.73818306 -13.3125 13.375 C-13.917566 9.06390473 -13.8287117 7.16652461 -11.4375 3.5 C-7.88840397 -0.04909603 -4.79513064 0.10056518 0 0 Z " fill="#D2DDDE" transform="translate(102.3125,127.625)"/>
<path d="M0 0 C3.9439563 1.93738204 6.87597405 4.10595243 9 8 C9.1875 10.75 9.1875 10.75 9 13 C7.35 13.33 5.7 13.66 4 14 C3.5875 13.21625 3.175 12.4325 2.75 11.625 C0.8809369 8.82140534 0.16931083 7.96840053 -3 7 C-7.15533496 6.47113919 -9.28433812 6.58887509 -12.9375 8.6875 C-16.10398769 13.77307113 -16.04719925 19.16457243 -15 25 C-13.18661695 27.69967865 -11.91947038 29.54026481 -9 31 C-5.11204889 31.25356203 -2.21536211 31.32836566 1 29 C2.75322937 26.46811352 2.75322937 26.46811352 4 24 C5.65 24.33 7.3 24.66 9 25 C8.91223822 29.38808921 8.29435548 32.28790754 5.25 35.4375 C0.85970031 38.82793847 -3.59306594 38.72437511 -8.96875 38.453125 C-14.55229598 37.61847122 -16.99787046 35.32714452 -20.3125 30.9375 C-23.92167585 24.65486056 -23.83018916 18.08010379 -23 11 C-18.49909745 0.9711433 -10.29160218 -1.2690187 0 0 Z " fill="#CEDCDB" transform="translate(75,128)"/>
<path d="M0 0 C1.07461739 0.00539291 1.07461739 0.00539291 2.17094421 0.01089478 C2.92211517 0.01074875 3.67328613 0.01060272 4.44721985 0.01045227 C6.94166404 0.01115153 9.43603448 0.01894452 11.9304657 0.02676392 C13.65539509 0.02862805 15.38032501 0.03005197 17.10525513 0.03105164 C21.65418448 0.03487719 26.20308211 0.04470779 30.7519989 0.05575562 C35.39025951 0.06596893 40.02852522 0.07054908 44.66679382 0.07559204 C53.77422967 0.08633003 62.88164192 0.1034069 71.98905945 0.12442017 C72.61405945 2.49942017 72.61405945 2.49942017 72.98905945 5.12442017 C70.56547814 7.54800148 69.30966852 7.36238441 66.00283813 7.3843689 C64.96637901 7.37593964 64.96637901 7.37593964 63.90898132 7.36734009 C63.18038406 7.36923843 62.4517868 7.37113678 61.70111084 7.37309265 C59.28656847 7.37680506 56.87232521 7.36608969 54.45780945 7.35488892 C52.78394099 7.35369725 51.11007186 7.35324393 49.436203 7.35350037 C45.92562177 7.35193469 42.4151424 7.34363873 38.90458679 7.33023071 C34.39838161 7.31324075 29.89228845 7.30941633 25.38605499 7.3101759 C21.92888819 7.30990432 18.47174602 7.30442509 15.0145874 7.29717445 C13.35275458 7.29398605 11.69091897 7.29201998 10.02908325 7.29128075 C7.70905274 7.289119 5.38914239 7.28037836 3.06913757 7.26968384 C2.03267845 7.27036362 2.03267845 7.27036362 0.97528076 7.27105713 C-3.78198426 7.23889831 -3.78198426 7.23889831 -6.01094055 6.12442017 C-6.05366155 4.45830111 -6.05157887 2.79059132 -6.01094055 1.12442017 C-4.32590356 -0.56061683 -2.24834171 0.00476033 0 0 Z " fill="#2EB565" transform="translate(70.01094055175781,85.87557983398438)"/>
<path d="M0 0 C25.41 0 50.82 0 77 0 C77.495 2.475 77.495 2.475 78 5 C75.57833022 7.42166978 74.31858109 7.24151629 71.01377869 7.27105713 C70.32280594 7.26700867 69.63183319 7.26296021 68.91992188 7.25878906 C67.82702599 7.26404602 67.82702599 7.26404602 66.71205139 7.26940918 C64.2975214 7.27823008 61.8832831 7.2723762 59.46875 7.265625 C57.79488061 7.26697155 56.1210116 7.268912 54.44714355 7.27142334 C50.93656699 7.27437508 47.4260921 7.27007538 43.91552734 7.26074219 C39.40926776 7.24934759 34.90324639 7.25590679 30.39699554 7.26788712 C26.93982133 7.27510438 23.48270385 7.27281841 20.02552795 7.26763153 C18.36369295 7.26629466 16.70185285 7.26794405 15.0400238 7.27259064 C12.71990253 7.27765373 10.40017033 7.26994898 8.08007812 7.25878906 C7.38910538 7.26283752 6.69813263 7.26688599 5.98622131 7.27105713 C1.22852925 7.22852925 1.22852925 7.22852925 -1 5 C-0.67 3.35 -0.34 1.7 0 0 Z " fill="#32B668" transform="translate(65,67)"/>
<path d="M0 0 C1.65 0 3.3 0 5 0 C8.75570954 7.874471 12.18562699 15.73898747 15 24 C18.21752808 17.92098178 20.90135563 11.86620355 23.10546875 5.34765625 C24 3 24 3 26 0 C28.475 0.495 28.475 0.495 31 1 C30.50373435 6.88335988 29.26812294 11.37640494 26.75 16.6875 C26.11608086 18.07572552 25.48460517 19.46506919 24.85546875 20.85546875 C24.54270996 21.54431152 24.22995117 22.2331543 23.90771484 22.94287109 C21.73025093 27.87759702 19.87814238 32.94546014 18 38 C16.35 38 14.7 38 13 38 C9.1777308 30.94350301 6.47810851 23.54347572 3.74487305 16.01757812 C3.22905238 14.62041588 2.69821432 13.22874084 2.15551758 11.84179688 C0.53378532 7.68051516 -0.33651385 4.4868514 0 0 Z " fill="#D0DDDC" transform="translate(120,128)"/>
<path d="M0 0 C0 6.27 0 12.54 0 19 C-12.32764382 19.40640584 -12.32764382 19.40640584 -17 16 C-19.0691993 13.36647362 -18.99930722 11.9618969 -18.9375 8.5625 C-16.22085801 -1.76073956 -9.16528769 -0.46289332 0 0 Z " fill="#177F41" transform="translate(38,93)"/>
<path d="M0 0 C0.79719955 0.00222061 1.59439911 0.00444122 2.41575623 0.00672913 C3.31661453 0.00680466 4.21747284 0.00688019 5.14562988 0.00695801 C6.12478867 0.01211929 7.10394745 0.01728058 8.11277771 0.02259827 C9.11018478 0.02401321 10.10759186 0.02542816 11.13522339 0.02688599 C14.3348027 0.03250337 17.53431315 0.04505881 20.73387146 0.05775452 C22.89728191 0.06276728 25.06069345 0.06733057 27.22410583 0.07142639 C32.53988471 0.08247845 37.85562317 0.09923348 43.17137146 0.12025452 C43.55355913 1.77640109 43.88532248 3.44482476 44.17137146 5.12025452 C43.17137146 6.12025452 43.17137146 6.12025452 41.34274292 6.24050903 C40.54554337 6.23828842 39.74834381 6.23606781 38.92698669 6.23377991 C38.02612839 6.23370438 37.12527008 6.23362885 36.19711304 6.23355103 C35.21795425 6.22838974 34.23879547 6.22322845 33.22996521 6.21791077 C32.23255814 6.21649582 31.23515106 6.21508087 30.20751953 6.21362305 C27.00794022 6.20800566 23.80842977 6.19545023 20.60887146 6.18275452 C18.44546101 6.17774176 16.28204947 6.17317846 14.11863708 6.16908264 C8.80285821 6.15803059 3.48711975 6.14127555 -1.82862854 6.12025452 C-2.21081621 4.46410794 -2.54257956 2.79568427 -2.82862854 1.12025452 C-1.82862854 0.12025452 -1.82862854 0.12025452 0 0 Z " fill="#25B35E" transform="translate(66.82862854003906,47.87974548339844)"/>
</svg>
