<svg width="80" height="80" viewBox="0 0 80 80" fill="none" xmlns="http://www.w3.org/2000/svg">
<rect width="80" height="80" rx="10" fill="#E4FFF6"/>
<path d="M43.5 22.9716V30.2C43.5 31.1801 43.5 31.6701 43.6907 32.0445C43.8585 32.3738 44.1262 32.6415 44.4555 32.8093C44.8299 33 45.3199 33 46.3 33H53.5284M54 36.4794V49.1C54 52.0403 54 53.5104 53.4278 54.6334C52.9244 55.6213 52.1213 56.4244 51.1335 56.9278C50.0104 57.5 48.5403 57.5 45.6 57.5H34.4C31.4597 57.5 29.9896 57.5 28.8665 56.9278C27.8787 56.4244 27.0756 55.6213 26.5722 54.6334C26 53.5104 26 52.0403 26 49.1V30.9C26 27.9597 26 26.4896 26.5722 25.3665C27.0756 24.3787 27.8787 23.5756 28.8665 23.0722C29.9896 22.5 31.4597 22.5 34.4 22.5H40.0206C41.3047 22.5 41.9468 22.5 42.551 22.6451C43.0867 22.7737 43.5988 22.9858 44.0685 23.2736C44.5983 23.5983 45.0523 24.0523 45.9603 24.9603L51.5397 30.5397C52.4477 31.4477 52.9017 31.9017 53.2264 32.4315C53.5142 32.9012 53.7263 33.4133 53.8549 33.949C54 34.5532 54 35.1953 54 36.4794Z" stroke="#5BC5A2" stroke-width="2" stroke-linecap="round" stroke-linejoin="round"/>
<path d="M37.6 46H36C33.7909 46 32 44.2091 32 42C32 39.7909 33.7909 38 36 38H37.6M36.8 42L44.8 42M43.0222 46H44C46.2091 46 48 44.2091 48 42C48 39.7909 46.2091 38 44 38H43.0222C42.6786 38 42.4 38.2786 42.4 38.6222V45.3778C42.4 45.7214 42.6786 46 43.0222 46Z" stroke="#5BC5A2" stroke-width="2" stroke-linecap="round" stroke-linejoin="round"/>
</svg>
