<svg fill="none" height="32" viewBox="0 0 32 32" width="32" xmlns="http://www.w3.org/2000/svg"><path d="m2 11.9556c0-3.48482 0-5.2272.67818-6.55821.59655-1.17078 1.54843-2.12266 2.71921-2.71921 1.33101-.67818 3.07339-.67818 6.55821-.67818h8.0888c3.4848 0 5.2272 0 6.5582.67818 1.1708.59655 2.1227 1.54843 2.7192 2.71921.6782 1.33101.6782 3.07339.6782 6.55821v8.0888c0 3.4848 0 5.2272-.6782 6.5582-.5965 1.1708-1.5484 2.1227-2.7192 2.7192-1.331.6782-3.0734.6782-6.5582.6782h-8.0888c-3.48482 0-5.2272 0-6.55821-.6782-1.17078-.5965-2.12266-1.5484-2.71921-2.7192-.67818-1.331-.67818-3.0734-.67818-6.5582z" fill="#fff"/><path d="m16.0019 12.4507-3.4609-6.10773c.1149-.11699.2471-.19373.3793-.24531-1.0205.33589-1.4888 1.48195-1.4888 1.48195l-6.32255 11.15489c-.08896.3498-.11367.6655-.10255.9436h6.9008z" fill="#34a853"/><path d="m16.002 12.4507 4.0947 7.2274h6.9008c.0111-.2781-.0136-.5938-.1026-.9436l-6.3225-11.15489s-.4695-1.14606-1.4889-1.48195c.131.05158.2644.12832.3793.24531z" fill="#fbbc05"/><path d="m16.0019 12.4514 3.4609-6.10769c-.1149-.117-.2484-.19374-.3793-.24532-.1508-.04906-.3126-.08177-.4881-.09058h-.1829-4.8212-.1829c-.1742.00755-.3373.04026-.4881.09058-.1309.05158-.2644.12832-.3793.24532z" fill="#188038"/><path d="m11.9082 19.6782-3.42133 6.0386s-.11367-.0554-.26812-.1699c.48559.3737.95758.4529.95758.4529h13.43707c.7413 0 .8958-.283.8958-.283.0024-.0013.0037-.0026.0061-.0038l-3.4188-6.0348z" fill="#4285f4"/><path d="m11.9086 19.6782h-6.90079c.0346.8203.39045 1.2996.39045 1.2996l.25947.4503c.01854.0265.02966.0416.02966.0416l.56466.9913 1.26771 2.2066c.03707.0893.08032.171.12604.249.01729.0265.03335.0554.05189.0806.00494.0075.00988.0151.01483.0226.15692.2214.33237.3925.50782.5271.15445.1158.26813.1699.26813.1699z" fill="#1967d2"/><path d="m20.0967 19.6782h6.9007c-.0346.8203-.3904 1.2996-.3904 1.2996l-.2595.4503c-.0185.0265-.0296.0416-.0296.0416l-.5647.9913-1.2677 2.2066c-.0371.0893-.0803.171-.126.249-.0173.0265-.0334.0554-.0519.0806-.005.0075-.0099.0151-.0149.0226-.1569.2214-.3323.3925-.5078.5271-.1544.1158-.2681.1699-.2681.1699z" fill="#ea4335"/></svg>