<svg width="60" height="49" viewBox="0 0 60 49" fill="none" xmlns="http://www.w3.org/2000/svg">
<g clip-path="url(#clip0_4885_8965)">
<path d="M10.8739 40.3726L13.0541 48.8049H11.4083L9.95611 42.7309L7.21828 48.8049H5.82806L3.10572 42.7657L1.61095 48.8049H0L2.16084 40.3726H3.5859L6.52898 46.9015L9.46044 40.3726H10.8739Z" fill="#003545"/>
<path d="M19.272 43.6313V42.6496H20.8617V48.8049H19.272V47.8136C18.8519 48.5261 17.9883 48.9346 16.9369 48.9346C14.7393 48.9346 13.5137 47.3857 13.5137 45.6043C13.5137 43.8869 14.6754 42.5063 16.7026 42.5063C17.8586 42.5199 18.817 42.9072 19.272 43.6313ZM15.2059 45.6876C15.2059 46.8203 15.9185 47.7903 17.2971 47.7903C18.6273 47.7903 19.3514 46.8435 19.3514 45.7224C19.3514 44.6014 18.604 43.6429 17.2216 43.6429C15.8972 43.6429 15.2079 44.5994 15.2079 45.6876H15.2059Z" fill="#003545"/>
<path d="M24.4451 48.8048H22.8574V42.6495H24.4451V44.0281C24.6267 43.5871 24.9337 43.209 25.3282 42.9409C25.7227 42.6728 26.1871 42.5264 26.6641 42.5198C27.0021 42.5152 27.3384 42.5702 27.6573 42.6824L27.3185 43.8442C27.0442 43.7714 26.762 43.7324 26.4782 43.728C25.3319 43.728 24.4451 44.5916 24.4451 45.8579V48.8048Z" fill="#003545"/>
<path d="M28.4516 41.0248C28.4485 40.9131 28.4685 40.802 28.5106 40.6985C28.5526 40.595 28.6156 40.5014 28.6957 40.4235C28.7758 40.3456 28.8711 40.2852 28.9758 40.246C29.0804 40.2069 29.192 40.1899 29.3035 40.1961C29.4172 40.1924 29.5304 40.2118 29.6364 40.2533C29.7423 40.2947 29.8386 40.3573 29.9196 40.4372C30.0006 40.5171 30.0644 40.6126 30.1073 40.7179C30.1502 40.8233 30.1712 40.9362 30.169 41.05C30.1712 41.162 30.15 41.2733 30.1066 41.3767C30.0633 41.4801 29.9988 41.5732 29.9173 41.6502C29.8357 41.7272 29.739 41.7862 29.6333 41.8235C29.5276 41.8609 29.4153 41.8757 29.3035 41.867C29.1912 41.8719 29.079 41.8535 28.9741 41.813C28.8692 41.7725 28.7738 41.7108 28.6938 41.6318C28.6138 41.5527 28.551 41.458 28.5094 41.3535C28.4677 41.2491 28.448 41.1372 28.4516 41.0248ZM28.5213 42.6493H30.1109V47.1471C30.1109 47.426 30.169 47.6254 30.4014 47.6254C30.5035 47.6229 30.6053 47.6112 30.7054 47.5905L30.9513 48.7523C30.6166 48.8842 30.2596 48.95 29.8999 48.9459C29.2338 48.9459 28.5213 48.7523 28.5213 47.2401V42.6493Z" fill="#003545"/>
<path d="M37.2096 43.6313V42.6496H38.805V48.8049H37.2154V47.8136C36.7952 48.5261 35.9317 48.9346 34.8803 48.9346C32.6846 48.9346 31.457 47.3857 31.457 45.6043C31.457 43.8869 32.6188 42.5063 34.646 42.5063C35.7961 42.5199 36.7546 42.9072 37.2096 43.6313ZM33.1435 45.6876C33.1435 46.8203 33.856 47.7903 35.2346 47.7903C36.5668 47.7903 37.2909 46.8435 37.2909 45.7224C37.2909 44.6014 36.5416 43.6429 35.161 43.6429C33.8347 43.6429 33.1454 44.5994 33.1454 45.6876H33.1435Z" fill="#003545"/>
<path d="M41.2402 40.3726H45.0488C48.2494 40.3726 49.8487 42.1365 49.8255 44.5877C49.8487 47.1358 48.0829 48.8049 45.3296 48.8049H41.2402V40.3726ZM42.2916 41.1199V48.0691H45.196C47.7421 48.0691 48.7122 46.3516 48.7122 44.5645C48.7122 42.545 47.4981 41.1199 45.196 41.1199H42.2916Z" fill="#003545"/>
<path d="M56.3191 48.8049H51.4785V40.3726H55.8447C57.5138 40.3726 59.1034 40.6862 59.0802 42.5566C59.0802 43.8752 58.2611 44.2392 57.3976 44.3786C58.6232 44.4832 59.3609 45.2654 59.3609 46.5278C59.3687 48.4195 57.7093 48.8049 56.3191 48.8049ZM55.957 44.0514C57.628 44.0514 58.0017 43.4086 58.0017 42.5915C58.0017 41.3639 57.2543 41.0851 55.957 41.0851H52.4873V44.0514H55.957ZM56.0035 44.7639H52.4873V48.0923H56.1545C57.1827 48.0923 58.2689 47.7535 58.2689 46.4581C58.2689 44.9634 57.02 44.7639 56.0035 44.7639Z" fill="#003545"/>
<path d="M59.7334 0.183733C59.5791 0.0566106 59.3833 -0.00891189 59.1835 -0.000208632C58.6356 -0.000208632 57.9269 0.371548 57.5455 0.57098L57.3945 0.64843C56.7546 0.958175 56.0581 1.13346 55.3479 1.16347C54.6198 1.1867 53.9925 1.2293 53.1754 1.31449C48.3348 1.81211 46.1759 5.52193 44.0964 9.10977C42.9637 11.0615 41.7942 13.0887 40.191 14.6377C39.8593 14.9594 39.5068 15.2588 39.1358 15.5342C37.4764 16.7676 35.393 17.6486 33.7724 18.272C32.2118 18.8684 30.5079 19.4047 28.8621 19.9236C27.3538 20.398 25.9307 20.8472 24.6218 21.3332C24.0312 21.552 23.5297 21.7205 23.0863 21.8676C21.8936 22.2549 21.0339 22.5511 19.7773 23.4166C19.2874 23.7516 18.7956 24.1136 18.4626 24.3847C17.4651 25.1806 16.5823 26.1104 15.839 27.1477C15.1999 28.1046 14.4613 28.9912 13.6356 29.7926C13.3703 30.0521 12.8998 30.1799 12.195 30.1799C11.3702 30.1799 10.3692 30.0095 9.31004 29.8294C8.218 29.6358 7.08918 29.4518 6.12106 29.4518C5.33495 29.4518 4.73278 29.5796 4.28358 29.8391C4.28358 29.8391 3.52651 30.2805 3.20703 30.8517L3.5207 30.9931C4.00712 31.2568 4.45746 31.5822 4.86057 31.9612C5.28116 32.3497 5.74965 32.6828 6.25466 32.9525C6.41587 33.0117 6.56247 33.1048 6.68451 33.2256C6.55284 33.4192 6.35922 33.669 6.15591 33.9362C5.03871 35.398 4.3862 36.3216 4.75989 36.825C4.939 36.918 5.13904 36.9634 5.34076 36.9567C7.77654 36.9567 9.08544 36.3235 10.7409 35.5219C11.2211 35.2896 11.709 35.0514 12.2899 34.8055C13.258 34.3854 14.2997 33.7154 15.4053 33.0068C16.8517 32.0638 18.3639 31.0957 19.8315 30.6291C21.0377 30.2613 22.2941 30.0849 23.5549 30.1063C25.1039 30.1063 26.7342 30.3135 28.3064 30.5148C29.4778 30.6659 30.6919 30.8208 31.8826 30.8924C32.3454 30.9195 32.7733 30.9331 33.1896 30.9331C33.7465 30.9347 34.303 30.9056 34.8567 30.8459L34.9903 30.7995C35.8248 30.2864 36.2159 29.1846 36.5954 28.1197C36.8394 27.4343 37.0446 26.8186 37.3699 26.4274C37.3891 26.4083 37.4098 26.3909 37.4319 26.3752C37.4471 26.3667 37.4648 26.3636 37.482 26.3664C37.4992 26.3692 37.515 26.3778 37.5268 26.3907C37.5268 26.3907 37.5268 26.4003 37.5268 26.4216C37.3331 30.5865 35.6564 33.2314 33.9602 35.582L32.8275 36.796C32.8275 36.796 34.4133 36.796 35.3156 36.4474C38.6072 35.4638 41.0914 33.2953 42.8998 29.8371C43.3458 28.9494 43.7446 28.0388 44.0945 27.109C44.1255 27.0315 44.4101 26.8883 44.383 27.2891C44.3733 27.4072 44.3655 27.5388 44.3559 27.6763C44.3559 27.7576 44.3559 27.8409 44.3404 27.9241C44.2939 28.505 44.1564 29.7326 44.1564 29.7326L45.173 29.1885C47.6242 27.6395 49.514 24.5144 50.9468 19.6526C51.5432 17.6273 51.9807 15.6155 52.3661 13.8439C52.8269 11.714 53.2238 9.88813 53.6788 9.17947C54.3933 8.06808 55.4834 7.31682 56.5386 6.58686C56.6819 6.48811 56.8271 6.39323 56.9685 6.28868C58.2948 5.35735 59.6134 4.28274 59.9038 2.27874V2.2342C60.1149 0.739433 59.9367 0.357994 59.7334 0.183733Z" fill="#003545"/>
</g>
<defs>
<clipPath id="clip0_4885_8965">
<rect width="60" height="48.9325" fill="white"/>
</clipPath>
</defs>
</svg>
