<svg width="60" height="60" viewBox="0 0 60 60" fill="none" xmlns="http://www.w3.org/2000/svg">
<rect width="60" height="60" rx="10" fill="#E7F4FF"/>
<path d="M40.8328 40.0136C41.1198 37.6229 41.0338 37.2722 42.8146 37.6594L43.2667 37.6991C44.636 37.7614 46.4272 37.4789 47.4796 36.99C49.7449 35.9389 51.0881 34.184 48.8544 34.6451C43.7593 35.6962 43.409 33.9709 43.409 33.9709C48.7892 25.9881 51.0383 15.8545 49.0969 13.3741C43.8019 6.60824 34.6363 9.80775 34.483 9.89082L34.4341 9.89993C33.4274 9.69095 32.3007 9.56614 31.0351 9.54568C28.7293 9.50779 26.9797 10.1501 25.6526 11.1568C25.6526 11.1568 9.30169 4.42042 10.0624 19.6284C10.2241 22.8636 14.6996 44.1085 20.0375 37.6915C21.9885 35.3451 23.8739 33.3611 23.8739 33.3611C24.8102 33.9831 25.9311 34.3004 27.1067 34.1864L27.1975 34.1089C27.1691 34.4002 27.1816 34.6853 27.2339 35.0226C25.859 36.559 26.263 36.8289 23.5138 37.3946C20.7324 37.968 22.3665 38.9885 23.4331 39.2552C24.7265 39.5787 27.7186 40.0369 29.7409 37.2065L29.6604 37.5295C30.1998 37.961 30.1634 40.6313 30.2398 42.539C30.3164 44.4469 30.4442 46.2274 30.8331 47.277C31.222 48.3265 31.6809 51.0302 35.294 50.2559C38.3137 49.6088 40.6224 48.6774 40.8328 40.0136Z" fill="black" stroke="black" stroke-width="1.6"/>
<path d="M48.8549 34.6446C43.7593 35.6957 43.409 33.9704 43.409 33.9704C48.7892 25.9871 51.0383 15.8533 49.0973 13.3732C43.8023 6.60774 34.6363 9.80736 34.4834 9.89042L34.4341 9.89924C33.4274 9.69025 32.3007 9.56575 31.0344 9.54509C28.7287 9.5073 26.9797 10.1496 25.6526 11.156C25.6526 11.156 9.30139 4.41993 10.0619 19.6278C10.2236 22.8632 14.699 44.1081 20.0371 37.6911C21.9882 35.3447 23.8733 33.3607 23.8733 33.3607C24.8097 33.9827 25.9306 34.3 27.1057 34.186L27.1969 34.1085C27.1686 34.3999 27.1815 34.6849 27.2335 35.0223C25.8583 36.5586 26.2624 36.8285 23.5134 37.3942C20.7318 37.9676 22.3659 38.9881 23.4328 39.2548C24.7262 39.5783 27.7185 40.0365 29.7404 37.2061L29.6598 37.5291C30.1986 37.9606 30.577 40.3362 30.5136 42.4898C30.4501 44.6433 30.4078 46.1218 30.8324 47.2766C31.2569 48.4315 31.68 51.0298 35.2939 50.2555C38.3136 49.6084 39.8784 47.9314 40.0961 45.1342C40.2506 43.1456 40.6002 43.4395 40.6222 41.6616L40.9027 40.8199C41.226 38.1242 40.954 37.2544 42.8144 37.6589L43.2665 37.6986C44.6358 37.7609 46.4279 37.4784 47.4798 36.9895C49.7447 35.9384 51.0879 34.1835 48.8547 34.6446H48.8549Z" fill="#336791"/>
<path d="M29.9593 36.1901C29.819 41.2062 29.9945 46.2572 30.4853 47.4848C30.9764 48.7124 32.0274 51.1 35.6416 50.3258C38.661 49.6785 39.7596 48.4258 40.2363 45.6608C40.5874 43.6264 41.2643 37.9766 41.3511 36.819M25.6274 11.0442C25.6274 11.0442 9.26505 4.3567 10.0257 19.5647C10.1875 22.8 14.6632 44.0456 20.0012 37.6283C21.9519 35.2816 23.716 33.441 23.716 33.441M34.4655 9.82365C33.8991 10.0012 43.5672 6.28934 49.0617 13.3102C51.0026 15.7904 48.7535 25.9242 43.3733 33.9078" stroke="white" stroke-width="1.6" stroke-linecap="round" stroke-linejoin="round"/>
<path d="M43.3732 33.9079C43.3732 33.9079 43.7238 35.6337 48.8196 34.5819C51.0523 34.1207 49.7086 35.8759 47.4442 36.9275C45.5858 37.79 41.4194 38.011 41.3513 36.8192C41.1762 33.7442 43.5441 34.6784 43.3732 33.9079ZM43.3732 33.9079C43.2187 33.214 42.1598 32.5329 41.4593 30.8346C40.8477 29.3523 33.0719 17.9846 43.6157 19.6729C44.002 19.593 40.8658 9.64383 30.9983 9.48205C21.133 9.32027 21.4567 21.6141 21.4567 21.6141" stroke="white" stroke-width="1.6" stroke-linecap="round" stroke-linejoin="bevel"/>
<path d="M27.1976 34.9593C25.8222 36.4956 26.2267 36.7655 23.4775 37.3315C20.6959 37.9048 22.3302 38.9252 23.3968 39.1919C24.6902 39.5155 27.6825 39.9737 29.7044 37.1426C30.3201 36.2807 29.7008 34.9053 28.855 34.5547C28.4464 34.3855 27.8999 34.1733 27.1976 34.9593Z" stroke="white" stroke-width="1.6" stroke-linecap="round" stroke-linejoin="round"/>
<path d="M27.1075 34.9324C26.9689 34.029 27.4043 32.9541 27.8709 31.6965C28.5721 29.8096 30.19 27.9225 28.8958 21.9372C27.9311 17.477 21.4606 21.009 21.4566 21.6137C21.4526 22.2183 21.7493 24.6791 21.3485 27.5447C20.8256 31.2841 23.7279 34.4466 27.0699 34.1231" stroke="white" stroke-width="1.6" stroke-linecap="round" stroke-linejoin="round"/>
<path d="M25.5679 21.5234C25.5387 21.73 25.946 22.2811 26.4772 22.3548C27.0074 22.4287 27.4612 21.998 27.49 21.7916C27.5187 21.5851 27.1119 21.3575 26.5806 21.2836C26.0501 21.2096 25.596 21.3173 25.568 21.5234H25.5679Z" fill="white" stroke="white" stroke-width="1.6"/>
<path d="M41.7178 21.1025C41.7465 21.3091 41.3397 21.8602 40.8085 21.9339C40.2779 22.0078 39.824 21.5771 39.7949 21.3707C39.7669 21.1642 40.1738 20.9366 40.7045 20.8627C41.2353 20.7887 41.689 20.8964 41.7178 21.1026V21.1025Z" fill="white" stroke="white" stroke-width="1.6"/>
<path d="M43.6157 19.6724C43.7031 21.2926 43.2667 22.3962 43.2117 24.1209C43.1303 26.6279 44.407 29.4974 42.4833 32.3704" stroke="white" stroke-width="1.6" stroke-linecap="round" stroke-linejoin="round"/>
</svg>
