<svg version="1.1" id="Layer_1" xmlns="http://www.w3.org/2000/svg" xmlns:xlink="http://www.w3.org/1999/xlink" x="0px" y="0px"
	 width="100%" viewBox="0 0 225 225" enable-background="new 0 0 225 225" xml:space="preserve">
<path fill="#04787C" opacity="1.000000" stroke="none"
	d="
M1.000000,163.000000
	C1.000000,130.312439 1.000000,97.624878 1.287297,64.282326
	C3.451949,58.772072 7.258736,57.225906 12.146783,57.221672
	C21.704090,57.213387 31.261278,57.065674 41.299377,56.983345
	C63.507435,56.993397 85.234627,56.995781 107.181358,57.252007
	C109.300941,59.985683 111.200989,62.465515 113.180511,65.162369
	C113.403961,65.657158 113.598099,65.893745 113.843033,66.552124
	C113.838150,81.043243 113.832642,95.071426 113.618027,109.436096
	C113.615845,118.187477 113.822792,126.602356 114.023071,135.484772
	C113.688683,144.991348 113.360970,154.030411 112.961060,163.407852
	C110.658157,168.363022 106.745262,169.987610 101.882729,169.985001
	C90.897903,169.979095 79.913055,169.997543 68.472847,169.908936
	C49.867741,169.793488 31.716528,169.639206 13.569147,169.836777
	C7.854682,169.898987 3.536396,168.327042 1.000000,163.000000
M66.063522,78.375458
	C58.885063,79.333595 51.475250,79.491615 44.594990,81.481049
	C38.071037,83.367455 33.810989,88.593712 33.073479,95.789841
	C32.298527,103.351257 35.552174,109.052032 41.905510,112.924759
	C45.009872,114.817039 48.411758,116.218040 51.660995,117.876640
	C55.928432,120.054977 60.504364,121.814110 64.353477,124.580284
	C69.244827,128.095474 68.295845,134.370987 62.563381,136.250992
	C58.759193,137.498611 54.343300,138.105637 50.429836,137.506409
	C44.660046,136.622986 39.093826,134.409988 33.329136,132.730698
	C33.329136,136.361359 33.329136,140.440567 33.329136,144.957306
	C44.396500,148.993256 55.728638,150.171738 67.356079,147.018768
	C75.108749,144.916504 80.141960,140.224640 81.258820,131.965668
	C82.377502,123.693336 79.482750,117.247566 72.224777,113.052017
	C68.935791,111.150795 65.378159,109.713463 61.938286,108.074333
	C58.209076,106.297333 54.225765,104.911751 50.799973,102.672165
	C45.282028,99.064842 45.820919,93.004066 52.015774,91.003777
	C56.286114,89.624901 61.111530,89.262093 65.622314,89.537071
	C69.776917,89.790329 73.842667,91.501167 77.949898,92.559967
	C78.607605,78.496994 80.171234,80.696518 67.447792,78.586586
	C67.283562,78.559357 67.119614,78.530373 66.063522,78.375458
z"/>
<path fill="#1A9BA1" opacity="1.000000" stroke="none"
	d="
M226.000000,118.000000
	C226.000000,123.354927 226.000000,128.709854 225.658966,134.709137
	C221.882660,154.442017 211.742584,168.732742 194.485809,177.658447
	C183.361526,183.412247 171.417496,184.822083 159.048126,182.608398
	C160.840332,161.133133 145.452209,142.358551 127.746254,136.992294
	C126.968819,136.626068 126.478432,136.324814 126.351837,135.871063
	C127.138733,134.363846 127.919441,133.011734 127.929352,131.653992
	C128.022949,118.824074 128.020050,105.992973 127.935745,93.162926
	C127.926521,91.758530 127.231575,90.358650 126.927322,88.655388
	C127.354668,87.613884 127.709373,86.873672 128.351791,85.956078
	C141.347000,74.691093 155.788269,68.477486 173.198502,70.269760
	C179.892685,71.989944 186.807159,72.458481 192.766602,75.089867
	C209.007278,82.260887 219.266998,95.010490 224.049438,112.137558
	C224.602661,114.118782 225.345230,116.047134 226.000000,118.000000
z"/>
<path fill="#046C70" opacity="1.000000" stroke="none"
	d="
M172.983139,70.004723
	C155.788269,68.477486 141.347000,74.691093 128.332764,85.474487
	C128.016357,77.687096 128.051804,70.203499 127.985298,62.720818
	C127.907310,53.946304 123.898521,50.009533 115.103531,50.004589
	C90.824532,49.990940 66.545517,49.995796 42.288544,49.634361
	C48.848045,28.340502 62.222351,13.642460 82.602737,5.509896
	C87.260094,3.651428 92.193596,2.484957 97.000000,1.000000
	C103.021156,1.000000 109.042305,1.000000 115.693405,1.351641
	C151.029114,8.045171 174.434769,36.259884 172.983139,70.004723
z"/>
<path fill="#FEFEFE" opacity="1.000000" stroke="none"
	d="
M173.198502,70.269760
	C174.434769,36.259884 151.029114,8.045171 116.161667,1.351641
	C152.595871,1.000000 189.191742,1.000000 226.000000,1.000000
	C226.000000,39.687302 226.000000,78.374992 226.000000,117.531342
	C225.345230,116.047134 224.602661,114.118782 224.049438,112.137558
	C219.266998,95.010490 209.007278,82.260887 192.766602,75.089867
	C186.807159,72.458481 179.892685,71.989944 173.198502,70.269760
z"/>
<path fill="#FFFFFF" opacity="1.000000" stroke="none"
	d="
M1.000000,163.468658
	C3.536396,168.327042 7.854682,169.898987 13.569147,169.836777
	C31.716528,169.639206 49.867741,169.793488 68.441711,170.298035
	C68.620125,172.841339 68.374306,174.898376 68.050949,177.390427
	C68.023056,179.877502 68.072693,181.929581 68.071152,184.360474
	C68.456360,186.898773 68.892738,189.058273 69.386696,191.609741
	C74.057251,208.310257 84.574463,218.862900 100.623482,224.064438
	C102.132881,224.553635 103.543510,225.347565 105.000000,226.000000
	C70.424385,226.000000 35.848766,226.000000 1.000000,226.000000
	C1.000000,205.313248 1.000000,184.625275 1.000000,163.468658
z"/>
<path fill="#FEFFFF" opacity="1.000000" stroke="none"
	d="
M159.067444,183.072922
	C171.417496,184.822083 183.361526,183.412247 194.485809,177.658447
	C211.742584,168.732742 221.882660,154.442017 225.658966,135.176743
	C226.000000,165.265488 226.000000,195.530960 226.000000,226.000000
	C191.312698,226.000000 156.625015,226.000000 121.653412,225.672104
	C143.870865,219.864517 157.256042,204.855484 159.067444,183.072922
z"/>
<path fill="#37C6D0" opacity="1.000000" stroke="none"
	d="
M159.048126,182.608398
	C157.256042,204.855484 143.870865,219.864517 121.184753,225.672104
	C115.977905,226.000000 110.955818,226.000000 105.466858,226.000000
	C103.543510,225.347565 102.132881,224.553635 100.623482,224.064438
	C84.574463,218.862900 74.057251,208.310257 69.903488,191.560165
	C83.489899,191.078537 96.617073,191.020798 109.744286,191.007385
	C114.790596,191.002228 118.302002,188.860931 120.106689,183.792023
	C120.442009,183.350357 120.669479,183.133011 121.277519,182.901581
	C126.607788,180.663834 127.986435,176.468582 127.988602,171.482346
	C127.993599,160.007324 128.017242,148.532288 128.033310,137.057266
	C145.452209,142.358551 160.840332,161.133133 159.048126,182.608398
z"/>
<path fill="#FEFEFE" opacity="1.000000" stroke="none"
	d="
M96.531342,1.000000
	C92.193596,2.484957 87.260094,3.651428 82.602737,5.509896
	C62.222351,13.642460 48.848045,28.340502 42.148529,50.006134
	C41.597153,52.816483 41.207832,54.896084 40.818516,56.975685
	C31.261278,57.065674 21.704090,57.213387 12.146783,57.221672
	C7.258736,57.225906 3.451949,58.772072 1.287297,63.813667
	C1.000000,43.057938 1.000000,22.115875 1.000000,1.000000
	C32.687347,1.000000 64.375015,1.000000 96.531342,1.000000
z"/>
<path fill="#FAFCFC" opacity="1.000000" stroke="none"
	d="
M66.509529,78.438843
	C67.119614,78.530373 67.283562,78.559357 67.447792,78.586586
	C80.171234,80.696518 78.607605,78.496994 77.948730,92.564957
	C73.842667,91.501167 69.776917,89.790329 65.622314,89.537071
	C61.111530,89.262093 56.286114,89.624901 52.015774,91.003777
	C45.820919,93.004066 45.282028,99.064842 50.799973,102.672165
	C54.225765,104.911751 58.209076,106.297333 61.938286,108.074333
	C65.378159,109.713463 68.935791,111.150795 72.224777,113.052017
	C79.482750,117.247566 82.377502,123.693336 81.258820,131.965668
	C80.141960,140.224640 75.108749,144.916504 67.356079,147.018768
	C55.728638,150.171738 44.396500,148.993256 33.329136,144.957306
	C33.329136,140.440567 33.329136,136.361359 33.329136,132.730698
	C39.093826,134.409988 44.660046,136.622986 50.429836,137.506409
	C54.343300,138.105637 58.759193,137.498611 62.563381,136.250992
	C68.295845,134.370987 69.244827,128.095474 64.353477,124.580284
	C60.504364,121.814110 55.928432,120.054977 51.660995,117.876640
	C48.411758,116.218040 45.009872,114.817039 41.905510,112.924759
	C35.552174,109.052032 32.298527,103.351257 33.073479,95.789841
	C33.810989,88.593712 38.071037,83.367455 44.594990,81.481049
	C51.475250,79.491615 58.885063,79.333595 66.509529,78.438843
z"/>
<path fill="#036165" opacity="1.000000" stroke="none"
	d="
M41.299377,56.983345
	C41.207832,54.896084 41.597153,52.816483 42.126488,50.365112
	C66.545517,49.995796 90.824532,49.990940 115.103531,50.004589
	C123.898521,50.009533 127.907310,53.946304 127.985298,62.720818
	C128.051804,70.203499 128.016357,77.687096 128.045059,85.651871
	C127.709373,86.873672 127.354668,87.613884 126.653427,88.824081
	C124.529221,91.191437 122.751541,93.088814 120.962303,94.518509
	C120.952858,86.399139 120.965813,78.747459 120.954437,71.095810
	C120.938644,60.473141 117.566963,57.084671 106.961823,56.998165
	C85.234627,56.995781 63.507435,56.993397 41.299377,56.983345
z"/>
<path fill="#195E62" opacity="1.000000" stroke="none"
	d="
M68.128479,176.955429
	C68.374306,174.898376 68.620125,172.841339 68.897087,170.395187
	C79.913055,169.997543 90.897903,169.979095 101.882729,169.985001
	C106.745262,169.987610 110.658157,168.363022 113.185860,163.699707
	C115.292976,169.594467 111.423241,173.118652 107.436295,176.831177
	C94.028954,176.901718 81.078720,176.928574 68.128479,176.955429
z"/>
<path fill="#024043" opacity="1.000000" stroke="none"
	d="
M107.181358,57.252007
	C117.566963,57.084671 120.938644,60.473141 120.954437,71.095810
	C120.965813,78.747459 120.952858,86.399139 120.841980,94.861847
	C120.450851,97.095940 120.168495,98.518997 119.562042,100.043854
	C117.434349,103.130310 115.630737,106.114952 113.827133,109.099594
	C113.832642,95.071426 113.838150,81.043243 113.771317,66.331161
	C113.554474,65.366592 113.355156,65.132629 113.101036,64.945351
	C111.200989,62.465515 109.300941,59.985683 107.181358,57.252007
z"/>
<path fill="#1F7378" opacity="1.000000" stroke="none"
	d="
M107.893394,176.787476
	C111.423241,173.118652 115.292976,169.594467 113.258049,163.361298
	C113.360970,154.030411 113.688683,144.991348 114.431282,135.477676
	C116.746658,134.982635 118.647156,134.962219 120.664314,134.961853
	C120.780975,134.981918 121.013222,135.027771 120.963379,135.491516
	C120.603912,147.970016 120.294281,159.984756 119.690659,172.168335
	C116.253021,175.606171 112.735748,177.909378 107.893394,176.787476
z"/>
<path fill="#0B5B5F" opacity="1.000000" stroke="none"
	d="
M120.547653,134.941803
	C118.647156,134.962219 116.746658,134.982635 114.437950,135.010147
	C113.822792,126.602356 113.615845,118.187477 113.618019,109.436096
	C115.630737,106.114952 117.434349,103.130310 119.626129,100.515106
	C120.192085,112.236961 120.369873,123.589386 120.547653,134.941803
z"/>
<path fill="#0B5B5F" opacity="1.000000" stroke="none"
	d="
M113.180511,65.162369
	C113.355156,65.132629 113.554474,65.366592 113.770706,65.868210
	C113.598099,65.893745 113.403961,65.657158 113.180511,65.162369
z"/>
<path fill="#18898F" opacity="1.000000" stroke="none"
	d="
M120.664314,134.961853
	C120.369873,123.589386 120.192085,112.236961 119.950226,100.413300
	C120.168495,98.518997 120.450851,97.095940 120.853531,95.329544
	C122.751541,93.088814 124.529221,91.191437 126.580795,89.125366
	C127.231575,90.358650 127.926521,91.758530 127.935745,93.162926
	C128.020050,105.992973 128.022949,118.824074 127.929352,131.653992
	C127.919441,133.011734 127.138733,134.363846 125.987137,135.850601
	C123.843513,135.664352 122.428368,135.346069 121.013222,135.027771
	C121.013222,135.027771 120.780975,134.981918 120.664314,134.961853
z"/>
<path fill="#31B3BC" opacity="1.000000" stroke="none"
	d="
M120.963379,135.491516
	C122.428368,135.346069 123.843513,135.664352 125.623352,136.003098
	C126.478432,136.324814 126.968819,136.626068 127.746254,136.992294
	C128.017242,148.532288 127.993599,160.007324 127.988602,171.482346
	C127.986435,176.468582 126.607788,180.663834 121.284157,182.455276
	C120.622528,178.703674 120.303589,175.351593 119.984650,171.999496
	C120.294281,159.984756 120.603912,147.970016 120.963379,135.491516
z"/>
<path fill="#278F96" opacity="1.000000" stroke="none"
	d="
M119.690659,172.168335
	C120.303589,175.351593 120.622528,178.703674 120.934830,182.502075
	C120.669479,183.133011 120.442009,183.350357 119.641296,183.797379
	C102.065323,183.990112 85.093819,183.985886 68.122330,183.981659
	C68.072693,181.929581 68.023056,179.877502 68.050949,177.390427
	C81.078720,176.928574 94.028954,176.901718 107.436295,176.831177
	C112.735748,177.909378 116.253021,175.606171 119.690659,172.168335
z"/>
<path fill="#2C9FA7" opacity="1.000000" stroke="none"
	d="
M68.071152,184.360474
	C85.093819,183.985886 102.065323,183.990112 119.502205,183.988983
	C118.302002,188.860931 114.790596,191.002228 109.744286,191.007385
	C96.617073,191.020798 83.489899,191.078537 69.845917,191.168182
	C68.892738,189.058273 68.456360,186.898773 68.071152,184.360474
z"/>
</svg>