<svg width="80" height="80" viewBox="0 0 80 80" fill="none" xmlns="http://www.w3.org/2000/svg">
<rect width="80" height="80" rx="10" fill="#D9E9FF"/>
<path d="M22.3603 45.5888L22.3602 45.5889C20.0221 48.9559 20.7383 53.5091 23.9633 55.7924L23.9653 55.7938C27.2131 58.0531 31.7401 57.1754 34.08 53.8295L34.0812 53.8277C34.8063 52.7752 35.2276 51.6283 35.3912 50.4592L35.3941 50.4385V50.4176V48.6415C35.3941 48.5316 35.4828 48.4423 35.5927 48.4415L47.3791 48.357C47.6506 48.3551 47.9026 48.2156 48.0483 47.9865L48.0597 47.9686L48.06 47.9688L48.0666 47.9573C49.1791 46.0262 51.5849 45.363 53.4615 46.4473C55.3407 47.5331 55.9927 49.9584 54.8821 51.8871C53.7702 53.7955 51.3419 54.4602 49.4642 53.3753L49.4609 53.3734C48.7127 52.9537 48.1576 52.3114 47.8497 51.5729C47.7246 51.2728 47.4322 51.0401 47.0746 51.0419L38.7101 51.083C38.3171 51.0849 37.9949 51.3694 37.9184 51.7398C37.6458 53.0591 37.1032 54.3448 36.2864 55.5808C33.094 60.1029 26.8696 61.2342 22.374 58.092C17.9009 54.9499 16.8465 48.6798 19.9958 44.1083C21.794 41.5251 24.5084 40.0766 27.3286 39.8156C27.4239 39.8067 27.5179 39.882 27.5219 39.9972L27.6001 42.2313C27.6036 42.3338 27.5234 42.4378 27.3968 42.4563C25.4422 42.7417 23.5918 43.8172 22.3603 45.5888ZM61.6614 51.0555L61.6614 51.0556C60.9847 56.5128 55.9625 60.3826 50.4306 59.7048L50.4301 59.7047C47.3502 59.3327 44.7805 57.6522 43.1982 55.2916C43.1446 55.2118 43.1663 55.0926 43.2665 55.0345L45.2021 53.9106C45.2908 53.859 45.4206 53.8808 45.4967 53.984C46.6697 55.5737 48.4925 56.6898 50.6479 56.9701L50.6509 56.9704C54.7444 57.4616 58.3877 54.6765 58.8818 50.7475C59.3763 46.815 56.4574 43.231 52.4103 42.7397L52.4073 42.7394C51.1453 42.5992 49.9291 42.7628 48.8296 43.1604L48.8111 43.1671L48.7937 43.1761L47.3173 43.9404C47.2204 43.9905 47.1013 43.9539 47.0494 43.858L41.6198 33.8195C41.48 33.5611 41.2099 33.4001 40.9161 33.4001H40.7249C38.5037 33.3133 36.7939 31.4915 36.8565 29.3212C36.9189 27.1566 38.7949 25.4573 40.9974 25.5397C43.2074 25.6675 44.9354 27.4524 44.8743 29.6164C44.8373 30.4209 44.5606 31.1606 44.1144 31.7667C43.9302 32.0167 43.8793 32.3653 44.0404 32.6628L47.9525 39.89C48.1372 40.2312 48.5327 40.3821 48.8924 40.2822C50.14 39.9356 51.4904 39.8244 52.879 39.983C58.4106 40.6615 62.3378 45.6225 61.6614 51.0555ZM31.8399 33.4529L31.8399 33.4528L31.8377 33.4476C29.6507 28.3082 31.9708 22.4346 37.0113 20.2962C42.0748 18.1576 47.9312 20.5783 50.1181 25.7175L50.1186 25.7187C51.3375 28.549 51.1697 31.6318 49.9119 34.1746C49.8694 34.2605 49.7553 34.301 49.655 34.2428L47.717 33.1175C47.6287 33.0662 47.5834 32.9438 47.6342 32.8274C48.4242 31.0176 48.4963 28.886 47.6325 26.8771C46.0414 23.1342 41.7987 21.3186 38.1506 22.8484L38.1497 22.8488C34.4777 24.4023 32.8446 28.7241 34.4355 32.4674C35.0917 34.014 36.1937 35.2093 37.5279 36.0052L37.5278 36.0055L37.5394 36.0117L37.9505 36.2331C38.0518 36.2876 38.0863 36.416 38.0261 36.514L31.5553 47.0316C31.3935 47.2946 31.4133 47.6036 31.5363 47.8461C31.5578 47.8883 31.5779 47.9328 31.5957 47.9804L31.6029 47.9994L31.6125 48.0173C32.6368 49.9196 31.9253 52.324 30.0031 53.3478L30.0019 53.3484C28.1067 54.3689 25.6995 53.6233 24.6493 51.6498C23.622 49.6993 24.3377 47.2949 26.2577 46.2723L26.2589 46.2717C26.9687 45.8895 27.7408 45.762 28.4946 45.8611C28.8084 45.9023 29.1452 45.7732 29.3259 45.4783L34.1219 37.651C34.3235 37.3221 34.2581 36.9064 33.9937 36.645C33.0917 35.7532 32.3316 34.6724 31.8399 33.4529Z" fill="#4285E0" stroke="#D9E9FF" stroke-width="0.6"/>
</svg>
