<svg xmlns="http://www.w3.org/2000/svg" width="81" height="80" viewBox="0 0 81 80" fill="none">
  <rect x="0.500977" width="80" height="80" fill="white"/>
  <path d="M34.1891 24.0035C28.819 25.2671 23.7196 31.3141 22.9976 37.316C22.095 44.4912 27.6005 52.3885 34.505 53.8777C37.5285 54.5095 39.7397 54.1484 41.9058 52.6592L43.5304 51.5762V53.2459C43.5304 55.1412 42.2217 57.533 40.7777 58.3001C39.1982 59.1576 35.4526 58.616 33.2865 57.2622C32.2035 56.5853 30.9399 56.0438 30.3984 56.0438C29.1348 56.0438 26.6077 58.7514 25.9308 60.8273C25.4344 62.2713 25.4795 62.5872 26.2467 63.6703C26.7431 64.302 28.5482 65.5656 30.263 66.423C32.9707 67.7768 33.9183 68.0025 37.4382 68.1379C40.7777 68.2732 41.951 68.1379 44.0719 67.3256C47.5016 66.062 51.202 62.6775 52.601 59.5637C53.684 57.172 53.684 57.0366 53.684 41.2872C53.684 22.9656 53.9097 23.9584 49.5323 23.6876C46.6442 23.5071 44.8842 24.1389 44.2524 25.6281L43.8463 26.5758L42.2668 25.5378C39.6495 23.7327 37.1675 23.2815 34.1891 24.0035ZM41.6351 35.2853C45.0196 38.6247 42.9438 43.8595 38.2505 43.8595C36.5357 43.8595 35.9942 43.6338 34.6855 42.3251C32.9707 40.6103 32.6999 38.8503 33.8281 36.6391C34.7757 34.7889 36.2198 33.9315 38.3859 33.9315C39.9202 33.9315 40.5971 34.2022 41.6351 35.2853Z" fill="#3893FF"/>
  <path d="M42.2007 23.8511C42.2007 23.8511 42.3404 20.0358 44.4409 19.4831C44.8308 19.0285 46.4591 18.6875 48.4089 18.6875C50.6495 18.6875 52.4659 19.1378 52.466 19.6934L53.3877 26.3103L53.3723 26.3112C53.3825 26.3435 53.3877 26.376 53.3877 26.4087C53.3877 27.0906 51.1586 27.6433 48.4089 27.6433C45.6592 27.6433 43.4301 27.0908 43.4301 26.4087C43.4301 26.3811 43.434 26.3538 43.4415 26.3263L44.3269 19.8756C43.9551 20.2297 43.5279 20.8183 43.346 21.7402C43.0059 23.4653 43.1841 23.9223 43.1841 23.9223L42.2007 23.8511Z" fill="#EE9D3E"/>
  <ellipse cx="4.08173" cy="1.04484" rx="4.08173" ry="1.04484" transform="matrix(-1 0 0 1 52.4814 18.6875)" fill="#FCB15A"/>
  <ellipse cx="1.66293" cy="0.298527" rx="1.66293" ry="0.298527" transform="matrix(-1 0 0 1 50.0635 19.5801)" fill="#DB9C51"/>
  <path d="M49.5326 16.2352C48.001 16.6991 47.1023 17.7738 47.0644 19.1993L47.0391 19.8894H48.3681C49.5705 19.8894 49.4579 19.8815 49.609 19.8815C49.9255 19.5308 50.8236 19.1201 51.3299 19.1993C51.9122 19.3011 52.583 19.8102 53.7855 21.0886C55.5322 22.9552 56.8359 23.8263 58.4181 24.1997C60.342 24.6635 62.6963 24.0865 63.8734 22.8647C64.4556 22.2538 65.0632 21.1564 65.1518 20.5682C65.2024 20.1948 65.1898 20.1609 65.0758 20.3758C64.8733 20.8057 63.7595 21.7221 63.038 22.0502C62.4937 22.2991 62.1393 22.3669 61.2533 22.4122C60.0255 22.4688 59.2914 22.2991 58.4687 21.8013C57.975 21.4958 56.9245 20.3306 55.9119 18.9617C54.6968 17.3326 53.2792 16.3484 51.7729 16.0995C50.8363 15.9411 50.4312 15.9637 49.5326 16.2352Z" fill="#3893FF"/>
</svg>