<svg width="30" height="30" viewBox="0 0 30 30" fill="none" xmlns="http://www.w3.org/2000/svg">
<g id="Group 1000006265">
<ellipse id="Ellipse 3" cx="14.5204" cy="15" rx="14.5204" ry="15" fill="#F6F6F6"/>
<path id="Vector" fill-rule="evenodd" clip-rule="evenodd" d="M12 8.1271L11.2182 10.5921C10.9984 11.2851 10.5301 11.8314 9.93613 12.0878L7.82323 13L9.93613 13.9122C10.5301 14.1685 10.9984 14.7149 11.2182 15.4078L12 17.8729L12.7818 15.4078C13.0016 14.7149 13.4699 14.1685 14.0639 13.9122L16.1768 13L14.0639 12.0878C13.4699 11.8314 13.0016 11.2851 12.7818 10.5921L12 8.1271ZM12.8722 6.70845C12.5726 5.76385 11.4274 5.76385 11.1278 6.70845L10.0553 10.0901C9.96106 10.3871 9.76037 10.6212 9.50581 10.7311L6.60724 11.9825C5.79759 12.332 5.79759 13.668 6.60724 14.0175L9.50581 15.2689C9.76037 15.3788 9.96106 15.6129 10.0553 15.9099L11.1278 19.2915C11.4274 20.2362 12.5726 20.2362 12.8722 19.2915L13.9447 15.9099C14.039 15.6129 14.2396 15.3788 14.4942 15.2689L17.3928 14.0175C18.2024 13.668 18.2024 12.332 17.3928 11.9825L14.4942 10.7311C14.2396 10.6212 14.039 10.3871 13.9447 10.0901L12.8722 6.70845Z" fill="url(#paint0_linear_4709_16699)"/>
<path id="Vector_2" fill-rule="evenodd" clip-rule="evenodd" d="M19 17.7377L18.673 18.6214C18.4927 19.1086 18.1086 19.4927 17.6214 19.673L16.7377 20L17.6214 20.327C18.1086 20.5073 18.4927 20.8914 18.673 21.3785L19 22.2623L19.327 21.3785C19.5073 20.8914 19.8914 20.5073 20.3786 20.327L21.2623 20L20.3786 19.673C19.8914 19.4927 19.5073 19.1086 19.327 18.6214L19 17.7377ZM19.6677 16.4648C19.4383 15.8451 18.5616 15.8451 18.3323 16.4648L17.6714 18.2508C17.5993 18.4457 17.4457 18.5993 17.2508 18.6714L15.4649 19.3323C14.845 19.5617 14.845 20.4383 15.4649 20.6677L17.2508 21.3285C17.4457 21.4007 17.5993 21.5543 17.6714 21.7492L18.3323 23.5351C18.5616 24.155 19.4383 24.155 19.6677 23.5351L20.3285 21.7492C20.4006 21.5543 20.5543 21.4007 20.7492 21.3285L22.5351 20.6677C23.155 20.4383 23.155 19.5617 22.5351 19.3323L20.7492 18.6714C20.5543 18.5993 20.4006 18.4457 20.3285 18.2508L19.6677 16.4648Z" fill="url(#paint1_linear_4709_16699)"/>
</g>
<defs>
<linearGradient id="paint0_linear_4709_16699" x1="13.8415" y1="6" x2="13.8415" y2="24.297" gradientUnits="userSpaceOnUse">
<stop stop-color="#3893FF"/>
<stop offset="1" stop-color="#AED3FF"/>
</linearGradient>
<linearGradient id="paint1_linear_4709_16699" x1="13.9954" y1="5.99059" x2="13.9954" y2="24" gradientUnits="userSpaceOnUse">
<stop stop-color="#3893FF"/>
<stop offset="1" stop-color="#AED3FF"/>
</linearGradient>
</defs>
</svg>
