<svg width="18" height="23" viewBox="0 0 18 23" fill="none" xmlns="http://www.w3.org/2000/svg">
<g id="Group 1000006291">
<path id="Vector" d="M4.80584 3.40643C2.51966 3.94435 0.348751 6.51871 0.0413652 9.07385C-0.342867 12.1285 2.00095 15.4905 4.94032 16.1245C6.2275 16.3935 7.16887 16.2398 8.09102 15.6058L8.78264 15.1447V15.8555C8.78264 16.6624 8.22551 17.6806 7.61073 18.0072C6.93833 18.3723 5.34377 18.1417 4.42161 17.5654C3.96053 17.2772 3.42261 17.0467 3.19207 17.0467C2.65414 17.0467 1.57829 18.1994 1.29012 19.0831C1.07879 19.6979 1.098 19.8323 1.4246 20.2934C1.63593 20.5624 2.40439 21.1003 3.13443 21.4653C4.28713 22.0417 4.69057 22.1377 6.18908 22.1954C7.61073 22.253 8.11024 22.1954 9.01318 21.8496C10.4733 21.3116 12.0486 19.8708 12.6442 18.5452C13.1053 17.527 13.1053 17.4693 13.1053 10.7645C13.1053 2.96456 13.2013 3.38722 11.3378 3.27195C10.1082 3.1951 9.35899 3.46406 9.09003 4.09805L8.91712 4.50149L8.24472 4.05962C7.13045 3.29116 6.07381 3.09904 4.80584 3.40643ZM7.97576 8.20933C9.41663 9.63099 8.53289 11.8595 6.53489 11.8595C5.80484 11.8595 5.57431 11.7635 5.01717 11.2063C4.28713 10.4763 4.17186 9.72705 4.65215 8.78568C5.05559 7.998 5.67036 7.63298 6.59252 7.63298C7.24571 7.63298 7.53389 7.74825 7.97576 8.20933Z" fill="white"/>
<g id="Group 40">
<path id="Vector_2" d="M8.21696 3.34277C8.21696 3.34277 8.27644 1.71851 9.17063 1.48324C9.33663 1.28968 10.0298 1.14453 10.8599 1.14453C11.8138 1.14453 12.5871 1.33625 12.5871 1.57277L12.9795 4.38973L12.9729 4.39008C12.9773 4.40385 12.9795 4.41768 12.9795 4.43163C12.9795 4.72193 12.0305 4.95721 10.8599 4.95721C9.68932 4.95721 8.74031 4.72199 8.74031 4.43163C8.74031 4.41987 8.742 4.40823 8.74518 4.39653L9.12211 1.65031C8.96383 1.80108 8.78195 2.05166 8.70454 2.44415C8.55976 3.17853 8.63559 3.37309 8.63559 3.37309L8.21696 3.34277Z" fill="#EE9D3E"/>
<ellipse id="Ellipse 3" cx="1.73768" cy="0.444812" rx="1.73768" ry="0.444812" transform="matrix(-1 0 0 1 12.5938 1.14453)" fill="#FCB15A"/>
<ellipse id="Ellipse 4" cx="0.707944" cy="0.127089" rx="0.707944" ry="0.127089" transform="matrix(-1 0 0 1 11.5645 1.52344)" fill="#DB9C51"/>
<path id="Vector_3" d="M11.3389 0.0999746C10.6869 0.29744 10.3043 0.754982 10.2881 1.36183L10.2773 1.65562H10.8431C11.355 1.65562 11.3071 1.65225 11.3714 1.65225C11.5062 1.50295 11.8885 1.32811 12.1041 1.36183C12.3519 1.40517 12.6375 1.6219 13.1494 2.16614C13.893 2.96081 14.4481 3.33166 15.1216 3.4906C15.9407 3.68806 16.9429 3.44244 17.4441 2.92228C17.692 2.66221 17.9506 2.19503 17.9883 1.94459C18.0099 1.78565 18.0045 1.77121 17.956 1.86271C17.8698 2.04573 17.3956 2.43584 17.0884 2.57552C16.8567 2.68147 16.7059 2.71037 16.3287 2.72963C15.806 2.75372 15.4934 2.68147 15.1432 2.46956C14.933 2.33952 14.4858 1.84345 14.0547 1.26069C13.5374 0.567149 12.9339 0.148137 12.2927 0.0421798C11.8939 -0.0252473 11.7215 -0.0156147 11.3389 0.0999746Z" fill="white"/>
</g>
</g>
</svg>
