<svg width="17" height="16" viewBox="0 0 17 16" fill="none" xmlns="http://www.w3.org/2000/svg">
<g id="pencil-02" clip-path="url(#clip0_4904_22556)">
<path id="Icon" d="M12.8708 1.33203L15.5374 3.9987M2.2041 14.6654L3.05504 11.5453C3.11055 11.3417 3.13831 11.2399 3.18092 11.145C3.21876 11.0607 3.26525 10.9806 3.31965 10.906C3.38091 10.8219 3.45551 10.7473 3.6047 10.5981L10.4936 3.70915C10.6257 3.57715 10.6917 3.51115 10.7678 3.48642C10.8347 3.46466 10.9068 3.46466 10.9738 3.48642C11.0499 3.51115 11.1159 3.57715 11.2479 3.70915L13.1603 5.62157C13.2923 5.75358 13.3583 5.81958 13.383 5.89569C13.4048 5.96264 13.4048 6.03476 13.383 6.1017C13.3583 6.17781 13.2923 6.24382 13.1603 6.37582L6.27137 13.2648C6.12218 13.414 6.04758 13.4886 5.96349 13.5498C5.88883 13.6042 5.80872 13.6507 5.72445 13.6885C5.62953 13.7312 5.52775 13.7589 5.32419 13.8144L2.2041 14.6654Z" stroke="#84BCFF" stroke-width="1.5" stroke-linecap="round" stroke-linejoin="round"/>
</g>
<defs>
<clipPath id="clip0_4904_22556">
<rect width="16" height="16" fill="white" transform="translate(0.871094)"/>
</clipPath>
</defs>
</svg>
