<svg width="16" height="17" viewBox="0 0 16 17" fill="none" xmlns="http://www.w3.org/2000/svg">
<path d="M10 2.15234V14.1523M6 2.15234V14.1523M14 5.35234V10.9523C14 12.0724 14 12.6325 13.782 13.0603C13.5903 13.4366 13.2843 13.7426 12.908 13.9344C12.4802 14.1523 11.9201 14.1523 10.8 14.1523H5.2C4.07989 14.1523 3.51984 14.1523 3.09202 13.9344C2.71569 13.7426 2.40973 13.4366 2.21799 13.0603C2 12.6325 2 12.0724 2 10.9523V5.35234C2 4.23224 2 3.67219 2.21799 3.24436C2.40973 2.86804 2.71569 2.56208 3.09202 2.37033C3.51984 2.15234 4.07989 2.15234 5.2 2.15234L10.8 2.15234C11.9201 2.15234 12.4802 2.15234 12.908 2.37033C13.2843 2.56208 13.5903 2.86804 13.782 3.24436C14 3.67219 14 4.23224 14 5.35234Z" stroke="#BEBEBE" stroke-width="1.5" stroke-linecap="round" stroke-linejoin="round"/>
</svg>
