<svg width="17" height="16" viewBox="0 0 17 16" fill="none" xmlns="http://www.w3.org/2000/svg">
<path d="M2.13672 6L14.4539 6M6.24245 2L6.24245 14M5.4213 2H11.1693C12.319 2 12.8939 2 13.333 2.21799C13.7193 2.40973 14.0333 2.71569 14.2302 3.09202C14.4539 3.51984 14.4539 4.0799 14.4539 5.2V10.8C14.4539 11.9201 14.4539 12.4802 14.2302 12.908C14.0333 13.2843 13.7193 13.5903 13.333 13.782C12.8939 14 12.319 14 11.1693 14H5.4213C4.27159 14 3.69673 14 3.2576 13.782C2.87133 13.5903 2.55728 13.2843 2.36047 12.908C2.13672 12.4802 2.13672 11.9201 2.13672 10.8V5.2C2.13672 4.07989 2.13672 3.51984 2.36047 3.09202C2.55728 2.71569 2.87133 2.40973 3.2576 2.21799C3.69673 2 4.27159 2 5.4213 2Z" stroke="#BEBEBE" stroke-width="1.5" stroke-linecap="round" stroke-linejoin="round"/>
</svg>
