<svg width="80" height="19" viewBox="0 0 80 19" fill="none" xmlns="http://www.w3.org/2000/svg">
<path d="M66.6534 0.130428C66.3995 0.200939 66.1457 0.39837 66.0611 0.609904C65.8496 1.07528 65.8496 2.11884 66.047 2.57011C66.4701 3.47266 68.7969 3.41625 69.0508 2.4855C69.1918 1.96372 69.1495 1.00477 68.9662 0.624006C68.7123 0.0599167 67.6546 -0.165719 66.6534 0.130428Z" fill="#151414"/>
<path d="M1.17049 0.403597C0.733316 0.445903 0.493578 0.558721 0.282045 0.826664C0.0141022 1.17922 0 1.37665 0 7.08805C0 11.1495 0.0423067 13.0956 0.155125 13.3353C0.352556 13.7443 0.634601 13.843 1.77688 13.843C3.08839 13.843 3.1589 13.7443 3.24351 11.8405L3.31403 10.247H4.79476H6.26139L6.98061 11.9251C7.37547 12.8418 7.82674 13.6879 7.96776 13.7866C8.75749 14.3648 10.7177 13.5469 10.7177 12.6443C10.7177 12.4328 10.3933 11.5021 9.98438 10.5713C9.26517 8.92135 9.25107 8.87904 9.4908 8.51238C10.3369 7.18677 10.5062 6.62268 10.5062 5.24066C10.5062 4.16889 10.4357 3.77403 10.1959 3.23815C9.51901 1.77151 8.06648 0.74205 6.24729 0.445903C5.47167 0.318983 2.42558 0.290778 1.17049 0.403597ZM6.07806 3.68942C7.07932 3.97146 7.5588 4.97272 7.14983 5.95988C6.83958 6.7214 6.21909 6.94703 4.62553 6.90473L3.31403 6.86242L3.27172 5.39579C3.25762 4.57786 3.27172 3.83044 3.29992 3.73172C3.38454 3.50609 5.30244 3.47788 6.07806 3.68942Z" fill="#151414"/>
<path d="M14.6657 4.2958C13.3824 4.64835 12.3389 5.565 11.6056 6.96112C11.253 7.62392 11.2107 7.84956 11.2107 9.04825C11.2107 10.2469 11.253 10.4726 11.6056 11.1354C12.4517 12.743 13.6645 13.6738 15.0747 13.8007C16.1747 13.8994 16.8234 13.7725 17.3452 13.3353C17.5708 13.1379 17.7682 13.0392 17.7682 13.1238C17.7682 13.2084 17.8952 13.4058 18.0503 13.561C18.4451 13.9558 20.1233 13.9699 20.6028 13.5751C20.9412 13.3071 20.9412 13.293 20.9835 9.65465C21.04 5.66371 20.9835 4.98681 20.5887 4.50733C20.363 4.22529 20.2079 4.18298 19.3477 4.18298C18.3182 4.18298 17.7682 4.45092 17.7682 4.9304C17.7682 5.11373 17.74 5.11373 17.5285 4.9304C16.7811 4.28169 15.6388 4.02785 14.6657 4.2958ZM16.9221 7.76495C17.1195 7.90597 17.3593 8.27263 17.4721 8.58288C17.6554 9.09056 17.6413 9.18927 17.4016 9.69695C17.0349 10.4444 16.2734 10.8251 15.6106 10.6136C14.5529 10.261 14.1017 9.11876 14.6657 8.23032C15.1875 7.39829 16.1183 7.21496 16.9221 7.76495Z" fill="#151414"/>
<path d="M25.7086 4.25378C24.0305 4.64864 22.4369 6.53834 22.2113 8.41394C21.9292 10.6562 23.6497 13.1241 25.8073 13.5895C26.7522 13.7869 27.4432 13.6741 28.1201 13.2087L28.6278 12.8702V13.392C28.6278 13.9843 28.2188 14.7317 27.7676 14.9715C27.274 15.2394 26.1035 15.0702 25.4266 14.6471C25.0881 14.4356 24.6933 14.2664 24.524 14.2664C24.1292 14.2664 23.3395 15.1125 23.1279 15.7612C22.9728 16.2125 22.9869 16.3112 23.2266 16.6496C23.3818 16.8471 23.9458 17.2419 24.4817 17.5099C25.3279 17.9329 25.624 18.0035 26.724 18.0458C27.7676 18.0881 28.1342 18.0458 28.797 17.7919C29.8688 17.3971 31.0252 16.3394 31.4623 15.3663C31.8008 14.6189 31.8008 14.5766 31.8008 9.65494C31.8008 3.92943 31.8713 4.23968 30.5034 4.15506C29.6008 4.09866 29.0509 4.29609 28.8534 4.76146L28.7265 5.05761L28.2329 4.73326C27.415 4.16917 26.6394 4.02814 25.7086 4.25378ZM28.0355 7.77934C29.0932 8.8229 28.4445 10.4588 26.9778 10.4588C26.4419 10.4588 26.2727 10.3883 25.8638 9.97929C25.3279 9.4434 25.2433 8.89342 25.5958 8.20241C25.892 7.62421 26.3432 7.35627 27.0201 7.35627C27.4996 7.35627 27.7111 7.44089 28.0355 7.77934Z" fill="#151414"/>
<path d="M25.7086 4.25378C24.0305 4.64864 22.4369 6.53834 22.2113 8.41394C21.9292 10.6562 23.6497 13.1241 25.8073 13.5895C26.7522 13.7869 27.4432 13.6741 28.1201 13.2087L28.6278 12.8702V13.392C28.6278 13.9843 28.2188 14.7317 27.7676 14.9715C27.274 15.2394 26.1035 15.0702 25.4266 14.6471C25.0881 14.4356 24.6933 14.2664 24.524 14.2664C24.1292 14.2664 23.3395 15.1125 23.1279 15.7612C22.9728 16.2125 22.9869 16.3112 23.2266 16.6496C23.3818 16.8471 23.9458 17.2419 24.4817 17.5099C25.3279 17.9329 25.624 18.0035 26.724 18.0458C27.7676 18.0881 28.1342 18.0458 28.797 17.7919C29.8688 17.3971 31.0252 16.3394 31.4623 15.3663C31.8008 14.6189 31.8008 14.5766 31.8008 9.65494C31.8008 3.92943 31.8713 4.23968 30.5034 4.15506C29.6008 4.09866 29.0509 4.29609 28.8534 4.76146L28.7265 5.05761L28.2329 4.73326C27.415 4.16917 26.6394 4.02814 25.7086 4.25378ZM28.0355 7.77934C29.0932 8.8229 28.4445 10.4588 26.9778 10.4588C26.4419 10.4588 26.2727 10.3883 25.8638 9.97929C25.3279 9.4434 25.2433 8.89342 25.5958 8.20241C25.892 7.62421 26.3432 7.35627 27.0201 7.35627C27.4996 7.35627 27.7111 7.44089 28.0355 7.77934Z" fill="#151414"/>
<path d="M36.4635 4.32067C34.7853 4.71554 33.1918 6.60524 32.9662 8.48083C32.6841 10.7231 34.4046 13.191 36.5622 13.6564C37.5071 13.8538 38.1981 13.741 38.875 13.2756L39.3827 12.9371V13.4589C39.3827 14.0512 38.9737 14.7986 38.5224 15.0384C38.0289 15.3063 36.8584 15.1371 36.1815 14.714C35.843 14.5025 35.4481 14.3333 35.2789 14.3333C34.8841 14.3333 34.0943 15.1794 33.8828 15.8281C33.7277 16.2794 33.7418 16.3781 33.9815 16.7165C34.1366 16.914 34.7007 17.3088 35.2366 17.5768C36.0827 17.9998 36.3789 18.0704 37.4789 18.1127C38.5224 18.155 38.8891 18.1127 39.5519 17.8588C40.6237 17.464 41.7801 16.4063 42.2172 15.4332C42.5557 14.6858 42.5557 14.6435 42.5557 9.72183C42.5557 3.99632 42.6262 4.30657 41.2583 4.22196C40.3557 4.16555 39.8057 4.36298 39.6083 4.82835L39.4814 5.1245L38.9878 4.80015C38.1699 4.23606 37.3943 4.09504 36.4635 4.32067ZM38.7904 7.84623C39.848 8.8898 39.1993 10.5257 37.7327 10.5257C37.1968 10.5257 37.0276 10.4551 36.6186 10.0462C36.0827 9.5103 35.9981 8.96031 36.3507 8.2693C36.6468 7.69111 37.0981 7.42317 37.775 7.42317C38.2545 7.42317 38.466 7.50778 38.7904 7.84623Z" fill="#3893FF"/>
<path d="M73.7758 4.67143C72.295 5.17911 71.2656 6.15216 70.6733 7.59059C70.5463 7.90084 70.4758 8.59185 70.4758 9.49439C70.4758 10.7213 70.5181 11.0033 70.8425 11.6943C71.3643 12.8084 72.2668 13.6828 73.2963 14.0917C74.0296 14.3879 74.3821 14.4302 75.9757 14.4302C77.668 14.4302 77.8654 14.402 78.6128 14.0635C79.4731 13.6546 79.6564 13.3584 79.5154 12.5969C79.4025 12.0469 78.7256 11.2572 78.3449 11.2572C78.2039 11.2572 77.8372 11.3559 77.5269 11.4687C77.2167 11.5815 76.5116 11.6661 75.9616 11.6802C75.1437 11.6802 74.8757 11.6238 74.4809 11.3559C74.2129 11.1867 73.9873 10.9328 73.9591 10.7918C73.9168 10.5803 74.1142 10.5521 76.1449 10.5521C78.7538 10.5521 79.3602 10.3687 79.7551 9.5226C80.3051 8.36621 79.8961 6.50472 78.8526 5.51756C77.668 4.40349 75.5385 4.05093 73.7758 4.67143ZM76.427 7.52008C76.8077 7.78802 76.9064 8.21109 76.6526 8.56365C76.4834 8.83159 76.3001 8.85979 75.186 8.85979C74.1424 8.85979 73.9309 8.81749 73.9309 8.63416C73.9309 7.67521 75.5949 6.92779 76.427 7.52008Z" fill="#151414"/>
<path d="M47.055 4.43119C45.5743 4.93888 44.5449 5.91193 43.9526 7.35036C43.8256 7.66061 43.7551 8.35162 43.7551 9.25416C43.7551 10.4811 43.7974 10.7631 44.1218 11.4541C44.6436 12.5682 45.5461 13.4425 46.5756 13.8515C47.3089 14.1476 47.6614 14.1899 49.255 14.1899C50.9473 14.1899 51.1447 14.1617 51.8921 13.8233C52.7524 13.4143 52.9357 13.1182 52.7947 12.3567C52.6818 11.8067 52.0049 11.0169 51.6242 11.0169C51.4832 11.0169 51.1165 11.1157 50.8062 11.2285C50.496 11.3413 49.7909 11.4259 49.2409 11.44C48.423 11.44 48.155 11.3836 47.7602 11.1157C47.4922 10.9464 47.2666 10.6926 47.2384 10.5516C47.1961 10.34 47.3935 10.3118 49.4242 10.3118C52.0331 10.3118 52.6395 10.1285 53.0344 9.28236C53.5844 8.12598 53.1754 6.26448 52.1319 5.27733C50.9473 4.16325 48.8178 3.8107 47.055 4.43119ZM49.7063 7.27985C50.087 7.54779 50.1857 7.97086 49.9319 8.32341C49.7627 8.59135 49.5793 8.61956 48.4653 8.61956C47.4217 8.61956 47.2102 8.57725 47.2102 8.39392C47.2102 7.43497 48.8742 6.68755 49.7063 7.27985Z" fill="#151414"/>
<path d="M55.5129 4.58692C55.3437 4.61513 55.0898 4.77025 54.9488 4.93948C54.7091 5.19332 54.6809 5.55998 54.6386 9.11374C54.6103 11.2714 54.6386 13.1611 54.6809 13.3444C54.8501 14.0072 55.2449 14.2188 56.2744 14.2188C57.8539 14.2046 57.9949 13.9226 57.9949 10.806C57.9949 8.81759 58.009 8.73298 58.3474 8.32402C58.7564 7.84454 59.3205 7.68942 59.9974 7.88685C60.9564 8.14069 61.0128 8.30991 61.0974 11.1304C61.182 14.1623 61.1679 14.12 62.6909 14.1905C63.6358 14.247 63.7345 14.2188 64.0588 13.8662L64.4114 13.4854L64.3691 10.9047C64.3409 8.02787 64.2422 7.5766 63.4101 6.36381C62.155 4.53051 59.9128 4.00873 58.4038 5.19332L57.9103 5.58818L57.7551 5.19332C57.5436 4.62923 56.5847 4.37539 55.5129 4.58692Z" fill="#151414"/>
<path d="M66.8785 4.62915C65.8914 4.86889 65.8914 4.88299 65.8914 9.42391C65.8914 13.0764 65.9196 13.5136 66.1452 13.7815C66.6388 14.402 68.19 14.4725 68.8246 13.8943C69.1349 13.6123 69.1349 13.57 69.1349 9.53673C69.1349 6.88551 69.0785 5.36246 68.9797 5.16503C68.8246 4.86889 68.0349 4.47402 67.6259 4.50223C67.4849 4.51633 67.1465 4.57274 66.8785 4.62915Z" fill="#151414"/>
<path d="M38.9675 4.2723C38.9675 4.2723 39.0111 3.08002 39.6675 2.90732C39.7893 2.76524 40.2982 2.65869 40.9075 2.65869C41.6077 2.65869 42.1753 2.79942 42.1754 2.97304L42.4634 5.04082L42.4586 5.04108C42.4617 5.05119 42.4634 5.06134 42.4634 5.07158C42.4634 5.28467 41.7668 5.45738 40.9075 5.45738C40.0482 5.45738 39.3516 5.28472 39.3516 5.07158C39.3516 5.06295 39.3529 5.0544 39.3552 5.04581L39.6319 3.02996C39.5157 3.14063 39.3822 3.32457 39.3254 3.61267C39.2191 4.15174 39.2747 4.29456 39.2747 4.29456L38.9675 4.2723Z" fill="#EE9D3E"/>
<ellipse cx="1.27554" cy="0.326514" rx="1.27554" ry="0.326514" transform="matrix(-1 0 0 1 42.1804 2.65869)" fill="#FCB15A"/>
<ellipse cx="0.519665" cy="0.0932896" rx="0.519665" ry="0.0932896" transform="matrix(-1 0 0 1 41.4246 2.93848)" fill="#DB9C51"/>
<path d="M41.2587 1.89236C40.7801 2.03731 40.4993 2.37317 40.4874 2.81862L40.4795 3.03428H40.8948C41.2706 3.03428 41.2354 3.03181 41.2826 3.03181C41.3815 2.92221 41.6622 2.79387 41.8204 2.81862C42.0023 2.85044 42.212 3.00953 42.5877 3.40902C43.1336 3.99235 43.541 4.26457 44.0354 4.38124C44.6367 4.52619 45.3724 4.34589 45.7402 3.96407C45.9222 3.77316 46.112 3.43023 46.1397 3.2464C46.1555 3.12973 46.1516 3.11912 46.116 3.1863C46.0527 3.32064 45.7046 3.607 45.4792 3.70953C45.3091 3.7873 45.1983 3.80852 44.9214 3.82266C44.5378 3.84033 44.3084 3.7873 44.0512 3.63175C43.897 3.53629 43.5687 3.17215 43.2523 2.74438C42.8725 2.23529 42.4295 1.92771 41.9588 1.84994C41.6661 1.80044 41.5395 1.80751 41.2587 1.89236Z" fill="#3893FF"/>
</svg>
