<svg width="16" height="20" viewBox="0 0 16 20" fill="none" xmlns="http://www.w3.org/2000/svg">
<g id="Group 54">
<g id="Group 1000006345">
<path id="Vector" d="M4.27185 3.02949C2.23969 3.50764 0.31 5.79596 0.036769 8.06719C-0.30477 10.7824 1.77862 13.7709 4.39139 14.3344C5.53554 14.5735 6.37231 14.4369 7.19201 13.8733L7.80678 13.4635V14.0953C7.80678 14.8126 7.31155 15.7177 6.76508 16.008C6.16739 16.3324 4.75 16.1275 3.93031 15.6152C3.52046 15.359 3.04231 15.1541 2.83739 15.1541C2.35923 15.1541 1.40292 16.1787 1.14677 16.9643C0.958924 17.5107 0.976001 17.6303 1.26631 18.0401C1.45415 18.2792 2.13723 18.7574 2.78616 19.0818C3.81077 19.5941 4.16939 19.6795 5.50139 19.7307C6.76508 19.782 7.20908 19.7307 8.0117 19.4234C9.30955 18.9452 10.7099 17.6644 11.2392 16.4861C11.6491 15.581 11.6491 15.5298 11.6491 9.56996C11.6491 2.63672 11.7345 3.01241 10.078 2.90995C8.98509 2.84164 8.31908 3.08072 8.08001 3.64426L7.92631 4.00288L7.32862 3.61011C6.33816 2.92703 5.39893 2.75626 4.27185 3.02949ZM7.08954 7.29873C8.37032 8.56242 7.58478 10.5433 5.80877 10.5433C5.15985 10.5433 4.95493 10.458 4.4597 9.96273C3.81077 9.31381 3.70831 8.64781 4.13523 7.81103C4.49385 7.11088 5.04031 6.78642 5.86001 6.78642C6.44062 6.78642 6.69678 6.88888 7.08954 7.29873Z" fill="#3893FF"/>
<g id="Group 40">
<path id="Vector_2" d="M7.30363 2.97058C7.30363 2.97058 7.3565 1.52681 8.15134 1.31767C8.2989 1.14562 8.91508 1.0166 9.65291 1.0166C10.5008 1.0166 11.1882 1.18702 11.1882 1.39726L11.537 3.90122L11.5312 3.90153C11.535 3.91377 11.537 3.92606 11.537 3.93846C11.537 4.19651 10.6935 4.40564 9.65291 4.40564C8.6124 4.40564 7.76883 4.19656 7.76883 3.93846C7.76883 3.92801 7.77034 3.91766 7.77316 3.90726L8.10821 1.46618C7.96752 1.6002 7.80585 1.82294 7.73704 2.17181C7.60834 2.82459 7.67575 2.99753 7.67575 2.99753L7.30363 2.97058Z" fill="#EE9D3E"/>
<ellipse id="Ellipse 3" cx="1.5446" cy="0.395388" rx="1.5446" ry="0.395388" transform="matrix(-1 0 0 1 11.1941 1.0166)" fill="#FCB15A"/>
<ellipse id="Ellipse 4" cx="0.629282" cy="0.112968" rx="0.629282" ry="0.112968" transform="matrix(-1 0 0 1 10.2788 1.35547)" fill="#DB9C51"/>
<path id="Vector_3" d="M10.0788 0.0887642C9.49928 0.264289 9.1592 0.670991 9.14483 1.21041L9.13525 1.47155H9.63818C10.0932 1.47155 10.0506 1.46857 10.1078 1.46857C10.2275 1.33585 10.5674 1.18044 10.759 1.21041C10.9793 1.24894 11.2332 1.44159 11.6882 1.92535C12.3492 2.63173 12.8425 2.96137 13.4413 3.10265C14.1693 3.27817 15.0602 3.05984 15.5057 2.59748C15.726 2.3663 15.9559 1.95103 15.9894 1.72842C16.0086 1.58714 16.0038 1.5743 15.9607 1.65564C15.8841 1.81832 15.4626 2.16509 15.1895 2.28924C14.9836 2.38342 14.8495 2.40911 14.5142 2.42623C14.0496 2.44764 13.7718 2.38342 13.4604 2.19506C13.2736 2.07947 12.8761 1.63852 12.4929 1.1205C12.0331 0.504029 11.4966 0.131575 10.9266 0.0373912C10.5722 -0.0225439 10.4189 -0.0139818 10.0788 0.0887642Z" fill="#3893FF"/>
</g>
</g>
</g>
</svg>
