<svg xmlns="http://www.w3.org/2000/svg" width="34" height="35" viewBox="0 0 34 35" fill="none">
  <path d="M19.8327 4.0166V9.8682C19.8327 10.6616 19.8327 11.0583 19.9871 11.3614C20.1229 11.6279 20.3396 11.8446 20.6062 11.9805C20.9092 12.1349 21.3059 12.1349 22.0994 12.1349H27.9509M19.8327 24.8848H11.3327M22.666 19.2181H11.3327M28.3327 14.9514V25.1681C28.3327 27.5483 28.3327 28.7384 27.8695 29.6476C27.462 30.4472 26.8118 31.0974 26.0121 31.5049C25.103 31.9681 23.9129 31.9681 21.5327 31.9681H12.466C10.0858 31.9681 8.89568 31.9681 7.98656 31.5049C7.18687 31.0974 6.5367 30.4472 6.12924 29.6476C5.66602 28.7384 5.66602 27.5483 5.66602 25.1681V10.4348C5.66602 8.05454 5.66602 6.86443 6.12924 5.95531C6.5367 5.15562 7.18687 4.50545 7.98656 4.09799C8.89568 3.63477 10.0858 3.63477 12.466 3.63477H17.016C18.0555 3.63477 18.5753 3.63477 19.0644 3.75219C19.4981 3.8563 19.9126 4.02802 20.2929 4.26104C20.7218 4.52387 21.0893 4.89139 21.8244 5.62644L26.341 10.1431C27.0761 10.8781 27.4436 11.2457 27.7064 11.6746C27.9394 12.0548 28.1111 12.4694 28.2153 12.903C28.3327 13.3922 28.3327 13.9119 28.3327 14.9514Z" stroke="#A0CCFF" stroke-width="2" stroke-linecap="round" stroke-linejoin="round"/>
</svg>