<svg xmlns="http://www.w3.org/2000/svg" width="44" height="40" viewBox="0 0 44 40" fill="none">
  <path d="M7.72 1H15.7468C17.2544 1 18.0082 1 18.6738 1.22955C19.2623 1.43255 19.7983 1.76383 20.2431 2.19944C20.746 2.69203 21.0831 3.36629 21.7574 4.71472L24.1 9.4H32.92C36.4483 9.4 38.2125 9.4 39.5601 10.0867C40.7456 10.6907 41.7093 11.6544 42.3133 12.8399C43 14.1875 43 15.9517 43 19.48V28.72C43 32.2483 43 34.0125 42.3133 35.3601C41.7093 36.5456 40.7456 37.5093 39.5601 38.1133C38.2125 38.8 36.4483 38.8 32.92 38.8H11.08C7.55167 38.8 5.7875 38.8 4.43986 38.1133C3.25444 37.5093 2.29066 36.5456 1.68666 35.3601C1 34.0125 1 32.2483 1 28.72V9.4V7.72C1 5.36778 1 4.19167 1.45777 3.29324C1.86044 2.50296 2.50296 1.86044 3.29324 1.45777C4.19167 1 5.36778 1 7.72 1Z" fill="#A0CCFF"/>
  <path d="M24.1 9.4L21.7574 4.71472C21.0831 3.36629 20.746 2.69203 20.2431 2.19944C19.7983 1.76383 19.2623 1.43255 18.6738 1.22955C18.0082 1 17.2544 1 15.7468 1H7.72C5.36778 1 4.19167 1 3.29324 1.45777C2.50296 1.86044 1.86044 2.50296 1.45777 3.29324C1 4.19167 1 5.36778 1 7.72V9.4M24.1 9.4H1M24.1 9.4H32.92M1 9.4H32.92M1 9.4V28.72C1 32.2483 1 34.0125 1.68666 35.3601C2.29066 36.5456 3.25444 37.5093 4.43986 38.1133C5.7875 38.8 7.55167 38.8 11.08 38.8H32.92C36.4483 38.8 38.2125 38.8 39.5601 38.1133C40.7456 37.5093 41.7093 36.5456 42.3133 35.3601C43 34.0125 43 32.2483 43 28.72V19.48C43 15.9517 43 14.1875 42.3133 12.8399C41.7093 11.6544 40.7456 10.6907 39.5601 10.0867C38.2125 9.4 36.4483 9.4 32.92 9.4" stroke="#3893FF" stroke-width="2" stroke-linecap="round" stroke-linejoin="round"/>
  <path d="M28.2998 24.1004L21.9998 17.8004M21.9998 17.8004L15.6998 24.1004M21.9998 17.8004V30.4004" stroke="#3893FF" stroke-width="2" stroke-linecap="round" stroke-linejoin="round"/>
</svg>