<svg width="240" height="240" viewBox="0 0 240 240" fill="none" xmlns="http://www.w3.org/2000/svg">
<rect width="240" height="240" fill="white"/>
<path d="M100.932 62.912C83.9976 66.8967 67.9166 85.9662 65.6397 104.893C62.7935 127.521 80.1552 152.425 101.929 157.121C111.463 159.113 118.436 157.975 125.267 153.278L130.39 149.863V155.129C130.39 161.106 126.263 168.648 121.71 171.067C116.729 173.771 104.917 172.063 98.0862 167.794C94.6708 165.659 90.6861 163.952 88.9784 163.952C84.9937 163.952 77.0244 172.49 74.8898 179.037C73.3244 183.59 73.4667 184.587 75.8859 188.002C77.4513 189.994 83.1437 193.979 88.5515 196.683C97.09 200.952 100.079 201.664 111.179 202.091C121.71 202.518 125.41 202.091 132.098 199.529C142.914 195.544 154.583 184.871 158.995 175.052C162.41 167.509 162.41 167.083 162.41 117.417C162.41 59.6389 163.122 62.7697 149.318 61.9159C140.21 61.3466 134.66 63.339 132.667 68.0352L131.387 71.0237L126.406 67.7505C118.152 62.0582 110.325 60.6351 100.932 62.912ZM124.413 98.4894C135.087 109.02 128.54 125.528 113.74 125.528C108.332 125.528 106.625 124.817 102.498 120.69C97.09 115.282 96.2362 109.732 99.7939 102.759C102.782 96.924 107.336 94.2201 114.167 94.2201C119.006 94.2201 121.14 95.074 124.413 98.4894Z" fill="#3893FF"/>
<path d="M126.203 62.4225C126.203 62.4225 126.644 50.3909 133.267 48.6481C134.497 47.2144 139.632 46.1392 145.781 46.1392C152.846 46.1392 158.575 47.5593 158.575 49.3113L161.481 70.1779L161.433 70.1805C161.465 70.2825 161.481 70.3849 161.481 70.4883C161.481 72.6387 154.452 74.3815 145.781 74.3815C137.11 74.3815 130.08 72.6391 130.08 70.4883C130.08 70.4011 130.092 70.3149 130.116 70.2282L132.908 49.8857C131.736 51.0025 130.388 52.8587 129.815 55.766C128.742 61.2059 129.304 62.6471 129.304 62.6471L126.203 62.4225Z" fill="#EE9D3E"/>
<ellipse cx="12.8718" cy="3.29494" rx="12.8718" ry="3.29494" transform="matrix(-1 0 0 1 158.622 46.1392)" fill="#FCB15A"/>
<ellipse cx="5.24408" cy="0.94141" rx="5.24408" ry="0.94141" transform="matrix(-1 0 0 1 150.995 48.9634)" fill="#DB9C51"/>
<path d="M149.322 38.4062C144.492 39.869 141.658 43.2582 141.538 47.7534L141.458 49.9296H145.65C149.442 49.9296 149.086 49.9047 149.563 49.9047C150.561 48.7988 153.393 47.5036 154.99 47.7534C156.826 48.0745 158.941 49.6799 162.733 53.7113C168.242 59.5978 172.353 62.3449 177.342 63.5222C183.41 64.9849 190.834 63.1654 194.546 59.3124C196.382 57.3859 198.298 53.9253 198.577 52.0702C198.737 50.8929 198.697 50.7858 198.338 51.4637C197.699 52.8194 194.187 55.7091 191.911 56.7438C190.195 57.5286 189.077 57.7427 186.283 57.8854C182.412 58.0638 180.097 57.5286 177.502 55.9589C175.945 54.9956 172.632 51.321 169.439 47.0042C165.607 41.8668 161.137 38.763 156.387 37.9781C153.433 37.4787 152.156 37.55 149.322 38.4062Z" fill="#3893FF"/>
</svg>
