<svg width="31" height="32" viewBox="0 0 31 32" fill="none" xmlns="http://www.w3.org/2000/svg">
  <circle cx="15" cy="15" r="15" fill="#F6F6F6" />
  <path fill-rule="evenodd" clip-rule="evenodd" d="M13.3555 8.45419L12.566 10.7347C12.3441 11.3758 11.8712 11.8812 11.2715 12.1185L9.13792 12.9623L11.2715 13.8062C11.8712 14.0434 12.3441 14.5489 12.566 15.1899L13.3555 17.4705L14.145 15.1899C14.3669 14.5489 14.8398 14.0434 15.4395 13.8062L17.5731 12.9623L15.4395 12.1185C14.8398 11.8812 14.3669 11.3758 14.145 10.7347L13.3555 8.45419ZM14.2362 7.14174C13.9336 6.26786 12.7773 6.26786 12.4748 7.14174L11.3917 10.2703C11.2966 10.545 11.094 10.7616 10.8369 10.8633L7.91004 12.021C7.09248 12.3443 7.09248 13.5803 7.91005 13.9037L10.8369 15.0613C11.094 15.163 11.2966 15.3796 11.3917 15.6544L12.4748 18.7829C12.7773 19.6568 13.9336 19.6568 14.2362 18.7829L15.3192 15.6544C15.4144 15.3796 15.617 15.163 15.8741 15.0613L18.801 13.9037C19.6185 13.5803 19.6185 12.3443 18.801 12.021L15.8741 10.8633C15.617 10.7616 15.4144 10.545 15.3192 10.2703L14.2362 7.14174Z" fill="url(#paint0_linear_4240_12774)" />
  <path fill-rule="evenodd" clip-rule="evenodd" d="M19.615 17.5278L19.3275 18.3584C19.1689 18.8164 18.8311 19.1774 18.4027 19.3469L17.6256 19.6542L18.4027 19.9616C18.8311 20.131 19.1689 20.492 19.3275 20.9499L19.615 21.7806L19.9026 20.9499C20.0611 20.492 20.3989 20.131 20.8273 19.9616L21.6043 19.6542L20.8273 19.3469C20.3989 19.1774 20.0611 18.8164 19.9026 18.3584L19.615 17.5278ZM20.2022 16.3315C20.0005 15.7489 19.2295 15.7489 19.0279 16.3315L18.4467 18.0101C18.3833 18.1933 18.2482 18.3377 18.0769 18.4055L16.5064 19.0266C15.9614 19.2422 15.9614 20.0662 16.5064 20.2818L18.0769 20.9029C18.2482 20.9707 18.3833 21.1151 18.4467 21.2983L19.0279 22.9769C19.2295 23.5595 20.0005 23.5595 20.2022 22.9769L20.7833 21.2983C20.8467 21.1151 20.9818 20.9707 21.1532 20.9029L22.7236 20.2818C23.2687 20.0662 23.2687 19.2422 22.7236 19.0266L21.1532 18.4055C20.9818 18.3377 20.8467 18.1933 20.7833 18.0101L20.2022 16.3315Z" fill="url(#paint1_linear_4240_12774)" />
  <g clip-path="url(#clip0_4240_12774)">
    <path d="M25 21C22.2386 21 20 23.2386 20 26C20 28.7614 22.2386 31 25 31C27.7614 31 30 28.7614 30 26C30 23.2386 27.7614 21 25 21Z" fill="#FFD9D3" />
    <path d="M25 24V26M25 28H24.995M20 26C20 23.2386 22.2386 21 25 21C27.7614 21 30 23.2386 30 26C30 28.7614 27.7614 31 25 31C22.2386 31 20 28.7614 20 26Z" stroke="#FF7F6D" stroke-linecap="round" stroke-linejoin="round" />
  </g>
  <defs>
    <linearGradient id="paint0_linear_4240_12774" x1="15.215" y1="6.48633" x2="15.215" y2="23.4137" gradientUnits="userSpaceOnUse">
      <stop stop-color="#3893FF" />
      <stop offset="1" stop-color="#AED3FF" />
    </linearGradient>
    <linearGradient id="paint1_linear_4240_12774" x1="15.2142" y1="6.48651" x2="15.2142" y2="23.4139" gradientUnits="userSpaceOnUse">
      <stop stop-color="#3893FF" />
      <stop offset="1" stop-color="#AED3FF" />
    </linearGradient>
    <clipPath id="clip0_4240_12774">
      <rect width="12" height="12" fill="white" transform="matrix(-1 0 0 -1 31 32)" />
    </clipPath>
  </defs>
</svg>