<svg xmlns="http://www.w3.org/2000/svg" width="14" height="14" viewBox="0 0 12 12" fill="none">
  <g clip-path="url(#clip0_1249_1763)">
    <path d="M8.50003 1V6.5M11 4.9V2.6C11 2.03995 11 1.75992 10.891 1.54601C10.7952 1.35785 10.6422 1.20487 10.454 1.10899C10.2401 1 9.96008 1 9.40003 1H4.05903C3.32829 1 2.96292 1 2.66782 1.13372C2.40773 1.25157 2.18668 1.44121 2.03065 1.68036C1.85361 1.9517 1.79805 2.31282 1.68694 3.03506L1.4254 4.73506C1.27885 5.68766 1.20557 6.16395 1.34693 6.53456C1.471 6.85985 1.70435 7.13185 2.00699 7.30393C2.35179 7.5 2.83369 7.5 3.79749 7.5H4.20003C4.48005 7.5 4.62007 7.5 4.72702 7.5545C4.8211 7.60243 4.89759 7.67892 4.94553 7.773C5.00003 7.87996 5.00003 8.01997 5.00003 8.3V9.76708C5.00003 10.448 5.55202 11 6.23295 11C6.39536 11 6.54254 10.9044 6.6085 10.7559L8.28888 6.97509C8.3653 6.80312 8.40352 6.71714 8.46392 6.65409C8.51732 6.59836 8.58289 6.55575 8.6555 6.52959C8.73765 6.5 8.83174 6.5 9.01992 6.5H9.40003C9.96008 6.5 10.2401 6.5 10.454 6.39101C10.6422 6.29513 10.7952 6.14215 10.891 5.95399C11 5.74008 11 5.46005 11 4.9Z" stroke="#888787" stroke-linecap="round" stroke-linejoin="round"/>
  </g>
  <defs>
    <clipPath id="clip0_1249_1763">
      <rect width="14" height="14" fill="white"/>
    </clipPath>
  </defs>
</svg>