<svg xmlns="http://www.w3.org/2000/svg" width="20" height="20" viewBox="0 0 20 20" fill="none">
  <path d="M2.5 6.5C2.5 5.09987 2.5 4.3998 2.77248 3.86502C3.01217 3.39462 3.39462 3.01217 3.86502 2.77248C4.3998 2.5 5.09987 2.5 6.5 2.5H13.5C14.9001 2.5 15.6002 2.5 16.135 2.77248C16.6054 3.01217 16.9878 3.39462 17.2275 3.86502C17.5 4.3998 17.5 5.09987 17.5 6.5V11C17.5 12.4001 17.5 13.1002 17.2275 13.635C16.9878 14.1054 16.6054 14.4878 16.135 14.7275C15.6002 15 14.9001 15 13.5 15H8.06979C7.54975 15 7.28972 15 7.04101 15.051C6.82036 15.0963 6.60683 15.1712 6.40624 15.2737C6.18014 15.3892 5.9771 15.5517 5.57101 15.8765L3.58313 17.4668C3.23639 17.7442 3.06302 17.8829 2.91712 17.8831C2.79022 17.8832 2.67019 17.8255 2.59102 17.7263C2.5 17.6123 2.5 17.3903 2.5 16.9463V6.5Z" stroke="#D8D8D8" stroke-width="1.5" stroke-linecap="round" stroke-linejoin="round"/>
</svg>