<svg width="22" height="22" viewBox="0 0 22 22" fill="none" xmlns="http://www.w3.org/2000/svg">
<g id="send-03">
<path id="Icon" d="M9.62539 10.9996H4.58372M4.50612 11.2668L2.36578 17.6602C2.19763 18.1625 2.11356 18.4137 2.17389 18.5683C2.22629 18.7026 2.33882 18.8045 2.47768 18.8432C2.63758 18.8878 2.87909 18.7791 3.36211 18.5618L18.681 11.6683C19.1524 11.4561 19.3882 11.3501 19.461 11.2027C19.5243 11.0747 19.5243 10.9245 19.461 10.7964C19.3882 10.6491 19.1524 10.543 18.681 10.3308L3.35677 3.43498C2.87521 3.21827 2.63442 3.10992 2.47468 3.15437C2.33596 3.19297 2.22343 3.29452 2.17086 3.42858C2.11032 3.58294 2.19349 3.83354 2.35984 4.33473L4.50672 10.803C4.53529 10.889 4.54958 10.9321 4.55522 10.9761C4.56022 11.0152 4.56017 11.0547 4.55506 11.0938C4.54931 11.1378 4.53492 11.1808 4.50612 11.2668Z" stroke="#828282" stroke-width="1.5" stroke-linecap="round" stroke-linejoin="round"/>
</g>
</svg>
