<svg xmlns="http://www.w3.org/2000/svg" width="14" height="14" viewBox="0 0 14 14" fill="none">
  <g clip-path="url(#clip0_4015_12699)">
    <path d="M2.99813 8.8184C2.99813 9.62312 2.34773 10.2735 1.54301 10.2735C0.738284 10.2735 0.0878906 9.62312 0.0878906 8.8184C0.0878906 8.01367 0.738284 7.36328 1.54301 7.36328H2.99813V8.8184ZM3.72569 8.8184C3.72569 8.01367 4.37608 7.36328 5.1808 7.36328C5.98553 7.36328 6.63592 8.01367 6.63592 8.8184V12.4562C6.63592 13.2609 5.98553 13.9113 5.1808 13.9113C4.37608 13.9113 3.72569 13.2609 3.72569 12.4562V8.8184Z" fill="#E01E5A" />
    <path d="M5.18206 2.97664C4.37734 2.97664 3.72694 2.32625 3.72694 1.52152C3.72694 0.7168 4.37734 0.0664062 5.18206 0.0664062C5.98679 0.0664062 6.63718 0.7168 6.63718 1.52152V2.97664H5.18206ZM5.18206 3.71523C5.98679 3.71523 6.63718 4.36562 6.63718 5.17034C6.63718 5.97507 5.98679 6.62546 5.18206 6.62546H1.53324C0.728519 6.62546 0.078125 5.97507 0.078125 5.17034C0.078125 4.36562 0.728519 3.71523 1.53324 3.71523H5.18206Z" fill="#36C5F0" />
    <path d="M11.0128 5.17034C11.0128 4.36562 11.6632 3.71523 12.4679 3.71523C13.2726 3.71523 13.923 4.36562 13.923 5.17034C13.923 5.97507 13.2726 6.62546 12.4679 6.62546H11.0128V5.17034ZM10.2852 5.17034C10.2852 5.97507 9.63484 6.62546 8.83012 6.62546C8.02539 6.62546 7.375 5.97507 7.375 5.17034V1.52152C7.375 0.7168 8.02539 0.0664062 8.83012 0.0664062C9.63484 0.0664062 10.2852 0.7168 10.2852 1.52152V5.17034Z" fill="#2EB67D" />
    <path d="M8.83012 11.0011C9.63484 11.0011 10.2852 11.6515 10.2852 12.4562C10.2852 13.2609 9.63484 13.9113 8.83012 13.9113C8.02539 13.9113 7.375 13.2609 7.375 12.4562V11.0011H8.83012ZM8.83012 10.2735C8.02539 10.2735 7.375 9.62312 7.375 8.8184C7.375 8.01367 8.02539 7.36328 8.83012 7.36328H12.4789C13.2837 7.36328 13.9341 8.01367 13.9341 8.8184C13.9341 9.62312 13.2837 10.2735 12.4789 10.2735H8.83012Z" fill="#ECB22E" />
  </g>
  <defs>
    <clipPath id="clip0_4015_12699">
      <rect width="14" height="14" fill="white" />
    </clipPath>
  </defs>
</svg>