<svg width="16" height="16" viewBox="0 0 16 16" fill="none" xmlns="http://www.w3.org/2000/svg">
<g id="bell-01">
<path id="Icon" d="M6.23621 14.0002C6.7063 14.4151 7.3238 14.6668 8.00009 14.6668C8.67639 14.6668 9.29389 14.4151 9.76398 14.0002M12.0001 5.3335C12.0001 4.27263 11.5787 3.25521 10.8285 2.50507C10.0784 1.75492 9.06096 1.3335 8.00009 1.3335C6.93923 1.3335 5.92181 1.75492 5.17167 2.50507C4.42152 3.25521 4.00009 4.27263 4.00009 5.3335C4.00009 7.39362 3.48041 8.80413 2.89987 9.7371C2.41018 10.5241 2.16533 10.9176 2.17431 11.0273C2.18425 11.1489 2.21 11.1952 2.30794 11.2679C2.3964 11.3335 2.79515 11.3335 3.59266 11.3335H12.4075C13.205 11.3335 13.6038 11.3335 13.6922 11.2679C13.7902 11.1952 13.8159 11.1489 13.8259 11.0273C13.8349 10.9176 13.59 10.5241 13.1003 9.73711C12.5198 8.80413 12.0001 7.39362 12.0001 5.3335Z" stroke="#888787" stroke-width="1.5" stroke-linecap="round" stroke-linejoin="round"/>
</g>
</svg>
